<?xml version="1.0" encoding="utf-8"?>
<!-- Generator: Adobe Illustrator 17.0.0, SVG Export Plug-In . SVG Version: 6.00 Build 0)  -->
<!DOCTYPE svg PUBLIC "-//W3C//DTD SVG 1.1//EN" "http://www.w3.org/Graphics/SVG/1.1/DTD/svg11.dtd">
<svg version="1.1" id="Layer_1" xmlns="http://www.w3.org/2000/svg" xmlns:xlink="http://www.w3.org/1999/xlink" x="0px" y="0px"
	 width="446.453px" height="347.413px" viewBox="197.722 123.864 446.453 347.413"
	 enable-background="new 197.722 123.864 446.453 347.413" xml:space="preserve">
<path d="M198.67,302.377c0.62,1.506,1.53,2.876,2.679,4.031L362.57,467.63c4.815,4.842,12.644,4.865,17.486,0.05
	c0.017-0.017,0.033-0.033,0.05-0.05c4.841-4.843,4.841-12.693,0-17.536L240.054,310.042h391.719c6.849,0,12.402-5.552,12.402-12.402
	s-5.552-12.402-12.402-12.402H240.054l140.052-140.052c4.927-4.758,5.063-12.609,0.305-17.536s-12.609-5.063-17.536-0.305
	c-0.103,0.1-0.205,0.201-0.305,0.305L201.349,288.872c-3.545,3.549-4.602,8.885-2.679,13.518V302.377z"/>
</svg>
