<?xml version="1.0" encoding="utf-8"?>
<!-- Generator: Adobe Illustrator 17.0.0, SVG Export Plug-In . SVG Version: 6.00 Build 0)  -->
<!DOCTYPE svg PUBLIC "-//W3C//DTD SVG 1.1//EN" "http://www.w3.org/Graphics/SVG/1.1/DTD/svg11.dtd">
<svg version="1.1" id="Layer_1" xmlns="http://www.w3.org/2000/svg" xmlns:xlink="http://www.w3.org/1999/xlink" x="0px" y="0px"
	 width="396.854px" height="471.264px" viewBox="222.518 62.008 396.854 471.264"
	 enable-background="new 222.518 62.008 396.854 471.264" xml:space="preserve">
<g>
	<path d="M606.97,359.648c-20.512,0-37.205-16.693-37.205-37.205v-80.611c0-77.882-60.148-141.85-136.418-148.2V74.41
		c0-6.849-5.552-12.402-12.402-12.402s-12.402,5.552-12.402,12.402v19.223c-76.27,6.35-136.418,70.317-136.418,148.2v80.611
		c0,20.512-16.693,37.205-37.205,37.205c-6.849,0-12.402,5.552-12.402,12.402v62.008c0,6.849,5.552,12.402,12.402,12.402h372.05
		c6.849-0.001,12.402-5.553,12.402-12.403V372.05C619.372,365.201,613.82,359.648,606.97,359.648z M594.57,421.657h-0.002H247.322
		v-38.445c28.276-5.767,49.607-30.818,49.607-60.768v-80.611c0-68.383,55.634-124.017,124.017-124.017
		s124.017,55.634,124.017,124.017v80.611c0.037,29.455,20.755,54.835,49.607,60.768V421.657z"/>
	<path d="M481.414,459.195c-6.621-1.007-12.846,3.424-14.062,10.01c-3.752,22.695-23.404,39.322-46.407,39.264
		c-23.001,0.053-42.651-16.572-46.407-39.264c-1.457-6.699-8.07-10.949-14.769-9.492c-6.255,1.361-10.45,7.254-9.687,13.609
		c5.743,34.646,35.744,60.027,70.863,59.95c35.121,0.083,65.125-25.301,70.863-59.95
		C492.839,466.551,488.185,460.226,481.414,459.195z"/>
	<path d="M420.945,155.021c-6.849,0-12.402,5.552-12.402,12.402s5.552,12.402,12.402,12.402c34.191,0,62.008,27.817,62.008,62.008
		c0,6.849,5.552,12.402,12.402,12.402s12.402-5.552,12.402-12.402C507.757,193.962,468.815,155.021,420.945,155.021z"/>
</g>
</svg>
