<?xml version="1.0" encoding="utf-8"?>
<!-- Generator: Adobe Illustrator 17.0.0, SVG Export Plug-In . SVG Version: 6.00 Build 0)  -->
<!DOCTYPE svg PUBLIC "-//W3C//DTD SVG 1.1//EN" "http://www.w3.org/Graphics/SVG/1.1/DTD/svg11.dtd">
<svg version="1.1" id="Layer_1" xmlns="http://www.w3.org/2000/svg" xmlns:xlink="http://www.w3.org/1999/xlink" x="0px" y="0px"
	 width="496.067px" height="396.853px" viewBox="172.912 99.213 496.067 396.853"
	 enable-background="new 172.912 99.213 496.067 396.853" xml:space="preserve">
<g>
	<path d="M656.577,201.874v-28.251c0-9.14-5.023-17.052-12.402-21.356v-28.251c0-13.679-11.124-24.803-24.803-24.803H222.518
		c-6.849,0-12.402,5.552-12.402,12.402c0,6.849,5.552,12.402,12.402,12.402h396.853v24.803H210.117
		c-6.849,0-12.402,5.552-12.402,12.402s5.552,12.402,12.402,12.402h421.657v24.803H197.715c-13.679,0-24.803,11.124-24.803,24.803
		v248.033c0,13.679,11.124,24.803,24.803,24.803h446.46c13.679,0,24.803-11.124,24.803-24.803V223.23
		C668.978,214.09,663.956,206.178,656.577,201.874z M644.175,471.263l-446.46,0.012V223.23h446.46V471.263z"/>
	<path d="M544.962,267.38c3.224,0,6.449-1.24,8.805-3.596c2.232-2.356,3.596-5.457,3.596-8.805c0-0.744-0.124-1.612-0.248-2.356
		c-0.113-0.822-0.365-1.619-0.744-2.356c-0.25-0.761-0.627-1.474-1.116-2.108c-0.434-0.667-0.932-1.29-1.488-1.86
		c-4.713-4.713-13.022-4.713-17.61,0c-4.768,4.854-4.768,12.633,0,17.486C538.513,266.14,541.737,267.38,544.962,267.38z
		 M532.56,394.497c0,6.849,5.552,12.402,12.402,12.402s12.402-5.552,12.402-12.402c0-6.849-5.552-12.402-12.402-12.402
		S532.56,387.648,532.56,394.497z M532.56,347.991c0,6.849,5.552,12.402,12.402,12.402s12.402-5.552,12.402-12.402
		s-5.552-12.402-12.402-12.402S532.56,341.142,532.56,347.991z M532.56,301.485c0,6.849,5.552,12.402,12.402,12.402
		s12.402-5.552,12.402-12.402s-5.552-12.402-12.402-12.402S532.56,294.635,532.56,301.485z M536.156,449.809
		c2.356,2.356,5.581,3.596,8.805,3.596c3.224,0,6.449-1.24,8.805-3.596c1.116-1.116,1.984-2.48,2.604-3.969
		c0.62-1.612,0.992-3.224,0.992-4.837c-0.02-1.621-0.357-3.222-0.992-4.713c-0.601-1.48-1.486-2.828-2.604-3.969
		c-3.472-3.472-9.053-4.589-13.518-2.728c-1.612,0.62-2.976,1.488-4.093,2.728c-1.116,1.116-1.984,2.48-2.604,3.969
		c-0.635,1.491-0.973,3.092-0.992,4.713c0,1.612,0.372,3.224,0.992,4.837C534.172,447.328,535.04,448.692,536.156,449.809
		L536.156,449.809z M279.107,383.46c4.322,2.862,10.146,1.68,13.009-2.642l13.853-20.897h42.327l-20.426,49.532
		c-2.224,5.343,0.306,11.478,5.649,13.701c4.481,1.865,9.656,0.408,12.507-3.519l43.579-59.714h39.475
		c6.849,0,12.402-5.552,12.402-12.402c0-6.849-5.552-12.402-12.402-12.402h-39.078l-43.976-60.272
		c-3.441-4.662-10.009-5.653-14.672-2.212c-3.864,2.851-5.299,7.961-3.484,12.407l20.649,50.078h-42.538l-13.865-20.909
		c-2.922-4.291-8.77-5.401-13.061-2.479c-3.434,2.339-4.926,6.654-3.669,10.615l8.334,25.175l-8.334,25.163
		C274.058,376.703,275.581,381.115,279.107,383.46L279.107,383.46z"/>
</g>
</svg>
