<?xml version="1.0" encoding="utf-8"?>
<!-- Generator: Adobe Illustrator 17.0.0, SVG Export Plug-In . SVG Version: 6.00 Build 0)  -->
<!DOCTYPE svg PUBLIC "-//W3C//DTD SVG 1.1//EN" "http://www.w3.org/Graphics/SVG/1.1/DTD/svg11.dtd">
<svg version="1.1" id="Layer_1" xmlns="http://www.w3.org/2000/svg" xmlns:xlink="http://www.w3.org/1999/xlink" x="0px" y="0px"
	 width="353.448px" height="295.408px" viewBox="244.221 149.936 353.448 295.408"
	 enable-background="new 244.221 149.936 353.448 295.408" xml:space="preserve">
<path d="M583.717,445.344H258.173c-7.705,0-13.952-6.246-13.952-13.952c0-7.705,6.246-13.952,13.952-13.952h325.544
	c7.705,0,13.952,6.246,13.952,13.952C597.669,439.097,591.422,445.344,583.717,445.344z M583.717,311.592H258.173
	c-7.705,0-13.952-6.246-13.952-13.952s6.246-13.952,13.952-13.952h325.544c7.705,0,13.952,6.246,13.952,13.952
	S591.422,311.592,583.717,311.592z M583.717,177.84H258.173c-7.705,0-13.952-6.246-13.952-13.952
	c0-7.705,6.246-13.952,13.952-13.952h325.544c7.705,0,13.952,6.246,13.952,13.952C597.669,171.593,591.422,177.84,583.717,177.84z"
	/>
</svg>
