<?xml version="1.0" encoding="utf-8"?>
<!-- Generator: Adobe Illustrator 17.0.0, SVG Export Plug-In . SVG Version: 6.00 Build 0)  -->
<!DOCTYPE svg PUBLIC "-//W3C//DTD SVG 1.1//EN" "http://www.w3.org/Graphics/SVG/1.1/DTD/svg11.dtd">
<svg version="1.1" id="Layer_1" xmlns="http://www.w3.org/2000/svg" xmlns:xlink="http://www.w3.org/1999/xlink" x="0px" y="0px"
	 width="496.998px" height="496.998px" viewBox="172.446 49.141 496.998 496.998"
	 enable-background="new 172.446 49.141 496.998 496.998" xml:space="preserve">
<g>
	<path fill="#1D1D1B" d="M609.476,49.141H232.414c-33.066,0-59.968,26.901-59.968,59.968v377.062
		c0,33.066,26.901,59.968,59.968,59.968h377.062c33.066,0,59.968-26.901,59.968-59.968V109.109
		C669.444,76.043,642.542,49.141,609.476,49.141z M645.444,486.171c0,19.833-16.135,35.968-35.968,35.968H232.414
		c-19.833,0-35.968-16.135-35.968-35.968V109.109c0-19.833,16.135-35.968,35.968-35.968h377.062
		c19.833,0,35.968,16.135,35.968,35.968L645.444,486.171L645.444,486.171z"/>
	<path fill="#1D1D1B" d="M376.697,137.387h-92.231c-13.086,0-23.733,10.646-23.733,23.733v92.231
		c0,13.086,10.646,23.733,23.733,23.733h92.231c13.086,0,23.733-10.647,23.733-23.733V161.12
		C400.43,148.034,389.783,137.387,376.697,137.387z M376.43,253.085h-91.698v-91.698h91.698V253.085z"/>
	<path fill="#1D1D1B" d="M557.425,137.387h-92.231c-13.087,0-23.733,10.646-23.733,23.733v92.231
		c0,13.086,10.646,23.733,23.733,23.733h92.231c13.086,0,23.732-10.647,23.732-23.733V161.12
		C581.157,148.034,570.511,137.387,557.425,137.387z M557.157,253.085H465.46v-91.698h91.697V253.085z"/>
	<path fill="#1D1D1B" d="M376.697,318.196h-92.231c-13.086,0-23.733,10.646-23.733,23.733v92.23
		c0,13.087,10.646,23.733,23.733,23.733h92.231c13.086,0,23.733-10.646,23.733-23.733v-92.23
		C400.43,328.842,389.783,318.196,376.697,318.196z M376.43,433.893h-91.698v-91.697h91.698V433.893z"/>
	<path fill="#1D1D1B" d="M557.425,318.196h-92.231c-13.087,0-23.733,10.646-23.733,23.733v92.23
		c0,13.087,10.646,23.733,23.733,23.733h92.231c13.086,0,23.732-10.646,23.732-23.733v-92.23
		C581.157,328.842,570.511,318.196,557.425,318.196z M557.157,433.893H465.46v-91.697h91.697V433.893z"/>
</g>
</svg>
