<?xml version="1.0" encoding="utf-8"?>
<!-- Generator: Adobe Illustrator 17.0.0, SVG Export Plug-In . SVG Version: 6.00 Build 0)  -->
<!DOCTYPE svg PUBLIC "-//W3C//DTD SVG 1.1//EN" "http://www.w3.org/Graphics/SVG/1.1/DTD/svg11.dtd">
<svg version="1.1" id="Layer_1" xmlns="http://www.w3.org/2000/svg" xmlns:xlink="http://www.w3.org/1999/xlink" x="0px" y="0px"
	 width="622.932px" height="261.765px" viewBox="118.712 141.046 622.932 261.765"
	 enable-background="new 118.712 141.046 622.932 261.765" xml:space="preserve">
<g>
	<path fill="#B4975A" d="M212.97,285.862l1.663,0.566l0.187,0.063l3.395-1.727c1.142-0.732,2.225-1.082,3.319-1.082h46.549v62.367
		l-0.301,1.038c-0.215,0.252-0.499,0.498-0.659,0.581l-2.177,1.417l-0.223,0.147v1.525h24.754v-1.541l-2.529-1.529l-0.798-0.725
		c0.047,0.02-0.027-0.369-0.02-0.914v-62.367h41.398c1.747,0.201,2.263,0.684,2.223,1.082v1.684h1.55l11.877-14.436H224.015
		L212.97,285.862z M217.095,315.683l-0.091,0.566h1.805l11.61-14.484h-82.102l-7.749,11.541h74.308
		c1.848,0.223,2.421,0.744,2.379,1.074v0.221L217.095,315.683z M241.325,338.296c-0.741,0.428-1.351,0.703-1.747,0.792
		l-57.186,0.157c-13.284,0-23.208-1.723-29.765-5.078c-10.004-5.194-14.912-12.684-14.929-22.701c0-4.609,1.292-8.885,3.892-12.826
		c4.93-7.287,12.482-11.896,22.79-13.807c2.861-0.522,5.132-0.83,6.829-0.998c3.1-0.172,6.617-0.241,10.514-0.241h17.723
		c1.884,0.192,2.422,0.717,2.4,1.037v0.217l-0.155,0.896l-0.085,0.57h1.642l11.781-14.263h-33.262
		c-8.163,0.004-14.409,0.259-18.813,0.826c-2.425,0.301-4.64,0.67-6.647,1.162c-5.602,1.244-11.131,3.379-16.556,6.45
		c-8.52,4.802-14.566,10.879-18.113,18.205c-1.976,4.133-2.933,8.707-2.926,13.727c-0.017,12.703,6.817,22.789,20.306,30.072
		c6.216,3.398,13.046,5.691,20.47,6.913c5.638,0.923,13.284,1.372,22.938,1.372h52.939l11.88-14.445h-2.586L241.325,338.296z
		 M348.998,273.558l2.341,1.52c0.834,0.551,1.117,1.053,1.117,1.48v69.393l-0.33,1.127c-0.238,0.236-0.538,0.469-0.762,0.605
		l-2.143,1.403l-0.224,0.142v1.531h24.581v-1.525l-2.174-1.535c-0.439-0.305-0.677-0.586-0.707-0.679l-0.216-70.462l0.308-0.978
		l0.673-0.566l1.917-1.322l0.199-0.148v-1.535h-24.581L348.998,273.558L348.998,273.558z M530.805,282.983l11.943,12.699
		l13.545,13.605l-22.404,0.016l-11.07,12.146l1.375,0.719l0.228,0.129l2.625-1.389c0.32-0.162,0.643-0.266,0.867-0.295
		c0.258-0.049,1.453-0.055,3.394-0.049h35.596l24.891,26.348c0.205,0.123,0.281,0.172,0.395,0.457l0.275,0.826
		c-0.027,0.325-0.697,0.887-3.07,0.892h-0.5v1.717h26.99l-74.686-78.677L530.805,282.983z M740.232,302.827l-0.471,0.143
		l0.471-0.147c-2.988-9.478-9.781-17.157-20.334-22.997c-9.527-5.299-23.291-7.893-41.279-7.902h-69.586v1.531l2.34,1.519
		c0.385,0.266,0.615,0.508,0.713,0.699l-0.016,7.77h34.193v0.023h32.254c13.678,0,23.586,1.811,29.68,5.363
		c9.67,5.662,14.438,13.117,14.455,22.553c0,4.891-1.262,9.189-3.769,13.024c-2.496,3.804-6.277,7.036-11.336,9.667
		c-6.484,3.361-16.355,5.099-29.588,5.099h-35.381v-51.518h-18.209l0.174,58.386l-0.309,1.018c-0.131,0.191-0.353,0.408-0.621,0.615
		l-2.107,1.348l-0.217,0.143v1.545h56.756c11.055,0,19.559-0.629,25.621-1.872c8.191-1.694,15.443-4.636,21.738-8.858
		c6.26-4.211,10.738-9.063,13.363-14.549c1.936-4.029,2.877-8.363,2.877-12.979C741.644,309.086,741.168,305.862,740.232,302.827
		 M490.754,348.968c-1.104-0.203-1.522-0.502-1.621-0.777l48.385-50.416l-10.33-11.002l-61.195,64.035h26.654v-1.722h-0.49
		C491.596,349.086,491.092,349.036,490.754,348.968 M467.205,341.406l0.857-0.927l17.59-18.848l-0.26-45.074l0.143-0.881
		l0.715-0.654l2.205-1.313l0.24-0.139v-1.555h-24.838v1.541l2.441,1.525c0.801,0.502,1.068,0.934,1.078,1.456v23.921h-52.611
		l-11.089,14.063l1.678,0.545l0.214,0.064l3.414-2.018c0.739-0.411,1.314-0.689,1.703-0.791c0.367-0.119,0.903-0.187,1.601-0.187
		h55.091L467.205,341.406z M403.224,346.999l-0.217-70.441l0.254-0.885c0.09-0.123,0.371-0.373,0.76-0.576l2.223-1.387l0.231-0.152
		v-1.551h-24.757v1.551l2.346,1.516c0.392,0.266,0.643,0.531,0.734,0.703l0.194,70.189l-0.315,1.117
		c-0.141,0.197-0.377,0.447-0.621,0.609l-2.12,1.389l-0.219,0.146v1.525h24.757v-1.535l-2.42-1.525
		C403.568,347.403,403.293,347.142,403.224,346.999 M496.35,232.686l16.707,16.777l16.701-16.777l-10.768-10.8l13.219-13.938V143.17
		l-0.943-0.217c0,0.01-1.033,2.175-5.494,7.012c-2.701,2.887-4.121,3.935-4.853,4.374c-0.586,0.309-1.164,0.551-1.123,1.268
		c0,0.208,0.018,0.443,0.018,0.827c0.379,3.336,4.297,1.929,4.523,7.143c0.109,1.801,0.139,6.918,0.139,12.91
		c0,11.203-0.121,25.501-0.135,27.341l-11.24,11.725l-11.314-11.725c-0.02-1.85-0.146-16.133-0.141-27.341
		c-0.006-5.992,0.023-11.109,0.141-12.91c0.225-5.215,4.129-3.812,4.502-7.143c0-0.394,0.016-0.635,0.016-0.832
		c0.037-0.727-0.537-0.954-1.117-1.263c-0.726-0.444-2.15-1.501-4.824-4.374c-4.498-4.837-5.475-7.017-5.5-7.012l-0.935,0.217
		v65.776l13.174,12.954L496.35,232.686z M520.979,232.691l-7.922,7.941l-7.926-7.946l7.926-7.936L520.979,232.691z M555.766,220.647
		c0-0.04-0.189-23.095-0.189-40.128c0-8.507,0.043-15.523,0.189-17.309c0.266-5.156,5.184-3.764,5.637-7.153
		c0-0.399,0.012-0.645,0.012-0.847c0.01-0.792-0.608-0.939-1.381-1.279c-0.926-0.457-2.707-1.515-6.059-4.394
		c-5.615-4.841-6.881-7.011-6.908-7.001l-0.91-1.49v80.099h9.617L555.766,220.647z M337.497,230.054
		c0.029,0.206,2.391,8.595,14.002,8.575c0.224,0,0.452-0.005,0.682-0.005c12.196-0.334,15.279-8.983,15.279-9.063l0.029-34.78
		c0,0.015,0.01-0.147,0.01-0.418c-0.01-1.653-0.361-8.084-6.308-8.152H307.57l0.064-1.349c0.219-5.21,3.932-3.817,4.285-7.139
		c0-0.403,0.012-0.634,0.012-0.802c-0.012-0.113,0.021-0.231-0.107-0.453c-0.769-0.565-0.494-0.063-1.294-0.556
		c-0.715-0.389-2.021-1.412-4.228-3.916c-4.303-4.861-5.336-5.629-5.403-5.678l-0.784-0.581v17.555h0.028v11.656h52.684
		c0.064-0.006,0.251-0.03,0.593-0.03c1.363,0.06,4.354,0.311,4.38,4.389v24.591c-0.025,0.004,0.025,5.805-5.792,5.815
		c-2.991,0-5.09-1.191-6.443-2.381c-1.361-1.186-1.968-2.377-1.975-2.367l0.053-13.859h-43.528v10.041h37.384v8.907H337.497z
		 M448.252,222.945c0-0.059-0.08,0.605-0.08,1.594c0.012,2.518,0.473,7.395,4.535,9.023c-0.004-0.005,1.43,0.768,3.531,0.782
		c1.348,0,2.965-0.345,4.617-1.402l0.586-0.369l-0.551-0.428c-2.396-1.786-2.877-6.933-2.84-9.678
		c-0.008-0.556,0.008-1.009,0.025-1.318h25.387l-0.068-12.143v-14.372h0.027v-27.582l-0.914,1.604
		c-0.006,0.005-1.229,2.164-6.607,6.991c-3.223,2.888-4.928,3.946-5.82,4.398c-0.721,0.33-1.332,0.492-1.318,1.274
		c0,0.217,0.025,0.452,0.025,0.846c0.436,3.376,5.158,1.988,5.402,7.154c0.182,2.475,0.182,17.082,0.182,17.102l0.037,5.334h-16.26
		c0.018-0.379,0.027-0.965,0.027-1.692c0-0.335-0.006-0.68-0.006-1.038c-0.064-5.998-2.025-18.52-16.594-18.51
		c-0.258,0-0.522-0.01-0.787,0.005c-4.723,0.138-8.859,0.246-12.424,0.246c-9.569,0.039-14.905-0.866-16.253-3.435l-0.257-0.452
		l-0.441,0.285c-1.685,1.088-2.372,3.105-2.372,5.156c0.012,3.41,1.877,7.223,5.178,7.494c2.276,0.108,5.553,0.137,8.839,0.137
		c5.893,0,11.797-0.113,11.805-0.113c13.674,0.118,13.275,6.317,13.389,8.487v3.43h-58.777l0.145-6.942l-0.108-63.425l-0.907,1.526
		c-0.01,0.009-1.275,2.175-6.901,6.991c-3.341,2.883-5.117,3.946-6.044,4.398c-0.77,0.35-1.378,0.498-1.378,1.284
		c0,0.212,0.022,0.448,0.022,0.852c0.457,3.38,5.367,1.992,5.634,7.148c0.281,3.833,0.326,27.179,0.326,40.429
		c0,5.451-0.012,9.201-0.012,9.21l0.091,7.922h67.909V222.945z M482.516,159.52l-0.35-0.355l-6.99-7.016l-7.34,7.36l7.346,7.36
		L482.516,159.52z M466.412,159.515l-0.35-0.34l-6.99-7.025l-7.334,7.365l7.334,7.355L466.412,159.515z"/>
	<path fill="#B4975A" d="M257.629,391.886l-0.684,1.934c-2.283,6.582-0.726,6.695,3.415,7.207v1.059h-11.793v-1.059
		c2.04-0.645,2.917-0.719,3.776-2.739l8.415-19.657l-0.398-1.14c1.479-0.542,2.706-1.665,3.594-2.948h0.733l7.099,18.582
		c2.463,6.216,2.188,6.668,6.103,7.902v1.059h-12.923v-1.059c3.708-0.645,3.922-1.357,1.847-6.75l-0.909-2.391L257.629,391.886
		L257.629,391.886z M265.051,389.593l-3.429-8.832l-3.279,8.832H265.051z"/>
	<path fill="#B4975A" d="M320.914,393.642c0,6.873,0.495,6.617,5.028,7.389v1.055h-15.033v-1.055
		c4.505-0.772,5.005-0.516,5.005-7.389v-9.01c0-6.883-0.5-6.602-5.005-7.369v-1.068h15.033v1.068
		c-4.533,0.768-5.028,0.486-5.028,7.369V393.642z"/>
	<path fill="#B4975A" d="M364.697,383.491c0-5.111-0.244-5.865-5.004-6.225v-1.076h11.813c4.659,0,10.944,0,10.944,6.051
		c0,3.016-2.249,5.231-4.932,6.238c2.832,5.555,6.737,11.518,12.996,13.004l-0.152,1.049c-3.39-0.172-7.29,0.176-10.253-1.904
		c-1.927-1.357-4.126-4.939-5.27-7.075c-1.774-3.425-1.516-3.212-5.126-3.733v3.826c0,5.182-0.225,6.908,5.886,7.381v1.059h-15.906
		v-1.059c4.512-0.768,5.004-0.512,5.004-7.381L364.697,383.491L364.697,383.491z M369.714,388.479
		c3.532-0.246,7.062-1.771,7.062-5.894c0-3.921-3.652-4.989-7.062-4.989V388.479z"/>
	<path fill="#B4975A" d="M424.566,402.811l-1.523-0.305l-6.282-20.064c-0.828-2.627-1.162-4.502-4.28-5.176v-1.072h11.882v1.072
		c-3.986,0.94-3.427,1.9-2.065,6.319l3.305,10.862h0.066l4.805-13.6c-0.721-2.263-1.828-3.051-4.102-3.582v-1.072h12.172v1.072
		c-3.188,0.867-3.861,0.906-2.305,5.895l3.582,11.666h0.057l1.307-4.158c0.693-2.213,2.928-8.933,2.928-10.828
		c0-2.043-1.762-2.043-3.315-2.574v-1.072h10.277v1.072c-3.377,1.029-3.805,1.781-5.463,6.455l-6.793,19.09l-1.557-0.305
		l-5.848-18.941h-0.092L424.566,402.811z"/>
	<path fill="#B4975A" d="M482.848,391.886l-0.682,1.934c-2.26,6.582-0.695,6.695,3.416,7.207v1.059h-11.797v-1.059
		c2.053-0.645,2.916-0.719,3.818-2.739l8.363-19.657l-0.385-1.14c1.48-0.542,2.703-1.665,3.625-2.948h0.733l7.088,18.582
		c2.451,6.216,2.186,6.668,6.094,7.902v1.059h-12.883v-1.059c3.656-0.645,3.896-1.357,1.795-6.75l-0.904-2.391L482.848,391.886
		L482.848,391.886z M490.289,389.593l-3.463-8.832l-3.232,8.832H490.289z"/>
	<path fill="#B4975A" d="M547.303,393.642c0,5.185-0.242,6.912,5.504,7.389v1.055h-16.025v-1.055
		c5.006-0.772,5.516-0.516,5.516-7.389v-1.762l-4.266-8.629c-1.697-3.479-2.193-5.117-6.4-5.988v-1.068h13.154v1.068
		c-2.635,0.678-3.904,0.363-1.713,5.024l3.307,6.966l2.051-4.191c3.231-6.588,2.541-6.928-0.857-7.799v-1.068h11.057v1.068
		c-3.213,0.678-4.76,1.471-6.326,4.325l-4.328,8.038l-0.672,1.451v2.565H547.303z"/>
	<path fill="#B4975A" d="M609.926,383.906h-1.129c-0.732-3.145-1.641-6.61-5.543-6.61c-2.318,0-3.871,1.719-3.871,3.971
		c0,6.176,12.479,5.742,12.479,13.709c0,5.48-5.229,7.768-10.072,7.768c-2.719,0-5.393-0.723-7.729-1.947l-1.248-7.539l1.166-0.236
		c1.256,3.735,4.043,7.967,8.514,7.967c2.525,0,4.363-1.647,4.363-4.133c0-6.416-12.492-5.891-12.492-13.412
		c0-5.063,4.83-7.893,9.459-7.893c2.299,0,4.508,0.566,6.426,1.717L609.926,383.906z"/>
</g>
</svg>
