<?xml version="1.0" encoding="utf-8"?>
<!-- Generator: Adobe Illustrator 17.0.0, SVG Export Plug-In . SVG Version: 6.00 Build 0)  -->
<!DOCTYPE svg PUBLIC "-//W3C//DTD SVG 1.1//EN" "http://www.w3.org/Graphics/SVG/1.1/DTD/svg11.dtd">
<svg version="1.1" id="Layer_1" xmlns="http://www.w3.org/2000/svg" xmlns:xlink="http://www.w3.org/1999/xlink" x="0px" y="0px"
	 width="496.066px" height="496.066px" viewBox="172.912 49.607 496.066 496.066"
	 enable-background="new 172.912 49.607 496.066 496.066" xml:space="preserve">
<path d="M420.945,545.673c136.766,0,248.033-111.268,248.033-248.033S557.711,49.607,420.945,49.607S172.912,160.874,172.912,297.64
	S284.179,545.673,420.945,545.673z M420.945,74.41c123.087,0,223.23,100.143,223.23,223.23s-100.143,223.23-223.23,223.23
	s-223.23-100.143-223.23-223.23S297.858,74.41,420.945,74.41z"/>
<g>
	<path d="M420.945,398.239c-19.854,0-36,16.146-36,36s16.146,36,36,36s36-16.146,36-36
		C456.945,414.386,440.799,398.239,420.945,398.239z"/>
	<path d="M420.945,125.041c-19.882,0-36,16.118-36,36v174.152c0,19.882,16.118,36,36,36s36-16.118,36-36V161.041
		C456.945,141.158,440.827,125.041,420.945,125.041z"/>
</g>
</svg>
