<?xml version="1.0" encoding="utf-8"?>
<!-- Generator: Adobe Illustrator 17.0.0, SVG Export Plug-In . SVG Version: 6.00 Build 0)  -->
<!DOCTYPE svg PUBLIC "-//W3C//DTD SVG 1.1//EN" "http://www.w3.org/Graphics/SVG/1.1/DTD/svg11.dtd">
<svg version="1.1" id="Layer_1" xmlns="http://www.w3.org/2000/svg" xmlns:xlink="http://www.w3.org/1999/xlink" x="0px" y="0px"
	 width="496.068px" height="421.658px" viewBox="172.911 86.811 496.068 421.658"
	 enable-background="new 172.911 86.811 496.068 421.658" xml:space="preserve">
<g>
	<path d="M619.372,210.828h-74.41v-74.41c0-27.358-22.247-49.607-49.607-49.607h-148.82c-27.358,0-49.607,22.247-49.607,49.607
		v74.41h-74.41c-27.358,0-49.607,22.247-49.607,49.607v235.632c0,6.855,5.547,12.402,12.402,12.402h471.264
		c6.855,0,12.402-5.547,12.402-12.402V260.435C668.979,233.075,646.731,210.828,619.372,210.828z M197.715,483.665v-223.23
		c0-13.673,11.13-24.803,24.803-24.803h74.41v248.033H197.715z M445.749,483.665h-49.607v-99.213h49.607V483.665z M470.552,483.665
		V372.05c0-6.855-5.547-12.402-12.402-12.402h-74.41c-6.855,0-12.402,5.547-12.402,12.402v111.615h-49.606V136.418
		c0-13.673,11.13-24.803,24.803-24.803h148.82c13.673,0,24.803,11.13,24.803,24.803v347.247H470.552z M644.175,483.665
		L644.175,483.665h-99.213V235.631h74.41c13.673,0,24.803,11.13,24.803,24.803L644.175,483.665L644.175,483.665z"/>
	<path d="M259.724,260.435H234.92c-6.855,0-12.402,5.547-12.402,12.402v24.803h0.001c0,6.855,5.547,12.402,12.402,12.402h24.803
		c6.855,0,12.402-5.547,12.402-12.402v-24.803C272.126,265.982,266.579,260.435,259.724,260.435z"/>
	<path d="M396.142,136.418h-37.205c-6.855,0-12.402,5.547-12.402,12.402v24.803c0,6.855,5.547,12.402,12.402,12.402h37.205
		c6.855,0,12.402-5.547,12.402-12.402V148.82C408.544,141.965,402.997,136.418,396.142,136.418z"/>
	<path d="M482.954,136.418h-37.205c-6.855,0-12.402,5.547-12.402,12.402v24.803c0,6.855,5.547,12.402,12.402,12.402h37.205
		c6.855,0,12.402-5.547,12.402-12.402V148.82C495.355,141.965,489.808,136.418,482.954,136.418z"/>
	<path d="M396.142,210.828h-37.205c-6.855,0-12.402,5.547-12.402,12.402v24.803c0,6.855,5.547,12.402,12.402,12.402h37.205
		c6.855,0,12.402-5.547,12.402-12.402V223.23C408.544,216.375,402.997,210.828,396.142,210.828z"/>
	<path d="M482.954,210.828h-37.205c-6.855,0-12.402,5.547-12.402,12.402v24.803c0,6.855,5.547,12.402,12.402,12.402h37.205
		c6.855,0,12.402-5.547,12.402-12.402V223.23C495.355,216.375,489.808,210.828,482.954,210.828z"/>
	<path d="M396.142,285.238h-37.205c-6.855,0-12.402,5.547-12.402,12.402v24.803c0,6.855,5.547,12.402,12.402,12.402h37.205
		c6.855,0,12.402-5.547,12.402-12.402V297.64C408.544,290.785,402.997,285.238,396.142,285.238z"/>
	<path d="M482.954,285.238h-37.205c-6.855,0-12.402,5.547-12.402,12.402v24.803c0,6.855,5.547,12.402,12.402,12.402h37.205
		c6.855,0,12.402-5.547,12.402-12.402V297.64C495.355,290.785,489.808,285.238,482.954,285.238z"/>
	<path d="M259.724,334.845H234.92c-6.855,0-12.402,5.547-12.402,12.402v24.803c0,6.855,5.547,12.402,12.402,12.402h24.803
		c6.855,0,12.402-5.547,12.402-12.402v-24.803C272.125,340.392,266.578,334.845,259.724,334.845z"/>
	<path d="M259.724,409.255H234.92c-6.855,0-12.402,5.547-12.402,12.402v24.803c0,6.855,5.547,12.402,12.402,12.402h24.803
		c6.855,0,12.402-5.547,12.402-12.402v-24.803C272.125,414.802,266.578,409.255,259.724,409.255z"/>
	<path d="M606.97,260.435h-24.803c-6.855,0-12.402,5.547-12.402,12.402v24.803c0,6.855,5.547,12.402,12.402,12.402h24.803
		c6.855,0,12.402-5.547,12.402-12.402v-24.803C619.372,265.982,613.825,260.435,606.97,260.435z"/>
	<path d="M606.97,334.845h-24.803c-6.855,0-12.402,5.547-12.402,12.402v24.803c0,6.855,5.547,12.402,12.402,12.402h24.803
		c6.855,0,12.402-5.547,12.402-12.402v-24.803C619.372,340.392,613.825,334.845,606.97,334.845z"/>
	<path d="M606.97,409.255h-24.803c-6.855,0-12.402,5.547-12.402,12.402v24.803c0,6.855,5.547,12.402,12.402,12.402h24.803
		c6.855,0,12.402-5.547,12.402-12.402v-24.803C619.372,414.802,613.825,409.255,606.97,409.255z"/>
</g>
</svg>
