<?xml version="1.0" encoding="utf-8"?>
<!-- Generator: Adobe Illustrator 17.0.0, SVG Export Plug-In . SVG Version: 6.00 Build 0)  -->
<!DOCTYPE svg PUBLIC "-//W3C//DTD SVG 1.1//EN" "http://www.w3.org/Graphics/SVG/1.1/DTD/svg11.dtd">
<svg version="1.1" id="Layer_1" xmlns="http://www.w3.org/2000/svg" xmlns:xlink="http://www.w3.org/1999/xlink" x="0px" y="0px"
	 width="841.89px" height="595.28px" viewBox="0 0 841.89 595.28" enable-background="new 0 0 841.89 595.28" xml:space="preserve">
<g>
	<path d="M420.945,49.607c-136.766,0-248.033,111.268-248.033,248.033s111.268,248.033,248.033,248.033
		S668.978,434.406,668.978,297.64S557.711,49.607,420.945,49.607z M420.945,520.87c-123.087,0-223.23-100.143-223.23-223.23
		S297.858,74.41,420.945,74.41s223.23,100.143,223.23,223.23S544.032,520.87,420.945,520.87z"/>
	<path d="M420.945,223.23c27.358,0,49.607-22.249,49.607-49.607s-22.249-49.607-49.607-49.607
		c-27.358,0-49.607,22.249-49.607,49.607S393.587,223.23,420.945,223.23z M420.945,148.82c13.679,0,24.803,11.124,24.803,24.803
		c0,13.679-11.124,24.803-24.803,24.803s-24.803-11.124-24.803-24.803C396.142,159.944,407.266,148.82,420.945,148.82z
		 M470.552,235.632h-99.213c-13.679,0-24.803,11.124-24.803,24.803v24.803c0,13.679,11.124,24.803,24.803,24.803h6.201v62.008
		h-6.201c-13.679,0-24.803,11.124-24.803,24.803v24.803c0,13.679,11.124,24.803,24.803,24.803h99.213
		c13.679,0,24.803-11.124,24.803-24.803v-24.803c0-13.679-11.124-24.803-24.803-24.803h-6.201v-62.008h6.201
		c13.679,0,24.803-11.124,24.803-24.803v-24.803C495.355,246.756,484.231,235.632,470.552,235.632z M470.552,285.238h-18.603
		c-6.849,0-12.402,5.552-12.402,12.402v86.812c0,6.849,5.552,12.402,12.402,12.402h18.603v24.803h-99.213v-24.803h18.603
		c6.849,0,12.402-5.552,12.402-12.402V297.64c0-6.849-5.552-12.402-12.402-12.402h-18.603v-24.803h99.213V285.238z"/>
</g>
</svg>
