<svg
   xmlns:dc="http://purl.org/dc/elements/1.1/"
   xmlns:cc="http://creativecommons.org/ns#"
   xmlns:rdf="http://www.w3.org/1999/02/22-rdf-syntax-ns#"
   xmlns:svg="http://www.w3.org/2000/svg"
   xmlns="http://www.w3.org/2000/svg"
   xmlns:xlink="http://www.w3.org/1999/xlink"
   xmlns:sodipodi="http://sodipodi.sourceforge.net/DTD/sodipodi-0.dtd"
   xmlns:inkscape="http://www.inkscape.org/namespaces/inkscape"
   width="47.089348mm"
   height="17.96987mm"
   viewBox="0 0 47.089347 17.96987"
   version="1.1"
   id="svg8"
   inkscape:version="0.92.1 r15371"
   sodipodi:docname="drawing.svg">
  <g
     inkscape:label="Layer 1"
     inkscape:groupmode="layer"
     id="layer1"
     transform="translate(-33.038824,-163.40584)">
    <path
       style="fill:#e35302;stroke-width:0.11904761"
       d="m 33.072613,181.21468 c -0.03125,-0.0818 -0.04296,-4.11309 -0.02603,-8.95833 l 0.03079,-8.80952 4.226191,-0.0317 c 4.558013,-0.0341 4.981118,0.005 6.167836,0.56589 3.10509,1.46848 3.837759,5.33238 1.433242,7.55854 -0.382973,0.35456 -0.696316,0.69855 -0.696316,0.76441 0,0.0659 0.200893,0.21489 0.446428,0.33118 0.608761,0.28833 1.429486,1.13282 1.703951,1.7533 0.371002,0.83871 0.487433,2.02351 0.291079,2.96198 -0.407109,1.94578 -1.756445,3.27311 -3.910349,3.8466 -0.85274,0.22705 -9.580793,0.24295 -9.666825,0.0176 z m 8.273831,-3.85542 c 0.74457,-0.43983 1.029844,-1.71249 0.5331,-2.37827 -0.573312,-0.76841 -0.739666,-0.81988 -2.649799,-0.81988 h -1.747607 l -0.03303,1.69643 -0.03303,1.69643 h 1.800377 c 1.452927,0 1.863988,-0.0376 2.129989,-0.19471 z m -0.311689,-6.9476 c 0.537485,-0.47192 0.71677,-0.93769 0.645687,-1.67746 -0.06734,-0.70078 -0.359429,-1.15468 -0.932957,-1.4498 -0.335615,-0.17269 -0.662239,-0.20445 -1.836775,-0.17857 l -1.428572,0.0315 -0.03286,1.81548 -0.03286,1.81548 h 1.606101 1.606101 z m 7.532581,10.76622 c -0.110414,-0.28774 -0.08448,-17.46959 0.02663,-17.64467 0.07333,-0.11554 0.590823,-0.14392 2.170797,-0.11904 l 2.074514,0.0327 0.05952,3.57143 0.05952,3.57143 3.063727,0.0318 3.063727,0.0318 0.03151,-3.6032 0.03151,-3.60319 h 2.142857 2.142857 v 8.92857 8.92857 h -2.142857 -2.142857 l -0.03175,-3.20849 c -0.0236,-2.38476 -0.06945,-3.23243 -0.178572,-3.30175 -0.08075,-0.0513 -1.412582,-0.0941 -2.959625,-0.0951 -2.199175,-10e-4 -2.841514,0.0328 -2.944412,0.15676 -0.08691,0.10472 -0.142402,1.22672 -0.163387,3.30357 l -0.03178,3.14499 -2.099326,0.0325 c -1.836152,0.0284 -2.108513,0.009 -2.172619,-0.15854 z m 17.719563,0.0368 c -0.03125,-0.0818 -0.04296,-4.11309 -0.02603,-8.95833 l 0.03079,-8.80952 4.345238,-0.0316 c 2.796361,-0.0204 4.568556,0.0146 4.971736,0.098 2.888844,0.59797 4.950143,3.57428 4.442547,6.41461 -0.383157,2.14402 -1.722867,3.74492 -3.74955,4.48057 -0.735434,0.26695 -0.961932,0.28843 -3.041364,0.28843 -1.235714,0 -2.331491,0.0325 -2.435061,0.0723 -0.164982,0.0633 -0.188308,0.45288 -0.188308,3.14502 0,1.69002 -0.03252,3.15751 -0.07226,3.26108 -0.06207,0.16174 -0.364892,0.1883 -2.146592,0.1883 -1.5498,0 -2.0887,-0.0376 -2.131148,-0.14881 z M 74.68458,170.5004 c 1.14858,-0.78401 1.092128,-2.34196 -0.114319,-3.15499 -0.384306,-0.25898 -0.499707,-0.27197 -2.140024,-0.24092 l -1.733813,0.0328 -0.03286,1.81548 -0.03286,1.81548 h 1.830733 c 1.702904,0 1.858135,-0.0187 2.223148,-0.26786 z"
       id="path41"
       inkscape:connector-curvature="0" />
  </g>
</svg>