<?xml version="1.0" encoding="utf-8"?>
<!-- Generator: Adobe Illustrator 17.0.0, SVG Export Plug-In . SVG Version: 6.00 Build 0)  -->
<!DOCTYPE svg PUBLIC "-//W3C//DTD SVG 1.1//EN" "http://www.w3.org/Graphics/SVG/1.1/DTD/svg11.dtd">
<svg version="1.1" id="Layer_1" xmlns="http://www.w3.org/2000/svg" xmlns:xlink="http://www.w3.org/1999/xlink" x="0px" y="0px"
	 width="429.798px" height="429.798px" viewBox="206.046 82.741 429.798 429.798"
	 enable-background="new 206.046 82.741 429.798 429.798" xml:space="preserve">
<path d="M420.945,512.539c-118.495,0-214.899-96.403-214.899-214.899S302.45,82.741,420.945,82.741s214.899,96.403,214.899,214.899
	S539.44,512.539,420.945,512.539z M420.945,97.657c-110.271,0-199.983,89.712-199.983,199.983s89.712,199.983,199.983,199.983
	s199.983-89.712,199.983-199.983S531.216,97.657,420.945,97.657z"/>
<g>
	<g>
		<path d="M420.563,393.215h-86.018c-5.276,0-9.557-4.282-9.557-9.557V211.622c0-5.276,4.282-9.557,9.557-9.557h86.018
			c5.285,0,9.557-4.272,9.557-9.557s-4.272-9.558-9.557-9.558h-86.018c-15.808,0-28.672,12.865-28.672,28.673v172.036
			c0,15.808,12.864,28.672,28.672,28.672h86.018c5.285,0,9.557-4.272,9.557-9.557C430.12,397.487,425.848,393.215,420.563,393.215z"
			/>
	</g>
</g>
<g>
	<g>
		<path d="M533.17,290.835l-58.11-57.345c-3.747-3.708-9.806-3.66-13.514,0.096s-3.67,9.806,0.096,13.514l41.527,40.983H391.89
			c-5.285,0-9.557,4.272-9.557,9.557s4.272,9.558,9.557,9.558h111.279l-41.527,40.983c-3.765,3.708-3.794,9.758-0.096,13.514
			c1.873,1.892,4.339,2.848,6.805,2.848c2.428,0,4.855-0.917,6.709-2.753l58.11-57.345c1.816-1.797,2.848-4.244,2.848-6.805
			C536.018,295.078,534.995,292.641,533.17,290.835z"/>
	</g>
</g>
</svg>
