<?xml version="1.0" encoding="utf-8"?>
<!-- Generator: Adobe Illustrator 13.0.2, SVG Export Plug-In . SVG Version: 6.00 Build 14948)  -->
<!DOCTYPE svg PUBLIC "-//W3C//DTD SVG 1.0//EN" "http://www.w3.org/TR/2001/REC-SVG-20010904/DTD/svg10.dtd">
<svg version="1.0" id="Layer_1" xmlns="http://www.w3.org/2000/svg" xmlns:xlink="http://www.w3.org/1999/xlink" x="0px" y="0px"
	 width="300px" height="49.675px" viewBox="0 0 300 49.675" enable-background="new 0 0 300 49.675" xml:space="preserve">
<g>
	<path d="M16.615,27.576c-1.173,2.351-3.644,4.113-7.339,4.113C3.524,31.688,0,27.871,0,22.486c0-5.018,2.94-9.299,8.886-9.299
		c5.823,0,8.44,3.5,8.563,6.975h-5.971c-0.49-1.835-1.64-2.202-2.448-2.202c-1.051,0-2.839,0.734-2.839,4.429
		s1.788,4.429,2.839,4.429c0.638,0,1.52-0.271,2.131-1.297c0.194-0.318,0.415-0.807,0.465-1.222h5.823
		C17.449,25.423,17.082,26.696,16.615,27.576"/>
	<path d="M25.354,21.752c-1.52,0-1.666,2.104-1.666,3.207s0.173,3.18,1.666,3.18s1.664-2.103,1.664-3.18
		C27.019,23.856,26.848,21.752,25.354,21.752 M25.279,31.688c-4.355,0-7.217-2.62-7.217-6.904c0-4.329,3.032-6.8,7.217-6.8
		c4.209,0,7.341,2.546,7.341,6.9C32.62,29.265,29.463,31.688,25.279,31.688"/>
	<path d="M65.633,31.125V24.2c0-1.197-0.392-1.688-1.247-1.688c-0.858,0-1.42,0.784-1.42,1.787v6.827h-5.457v-6.9
		c0-1.2-0.393-1.665-1.248-1.665c-0.88,0-1.444,0.758-1.444,1.762v6.803h-5.36v-6.9c0-1.2-0.392-1.665-1.247-1.665
		c-0.882,0-1.444,0.758-1.444,1.762v6.803h-5.358v-6.9c0-1.2-0.392-1.665-1.247-1.665c-0.884,0-1.445,0.758-1.445,1.762v6.803
		h-5.357V18.72h4.868l0.123,1.1c0.809-1.004,2.177-1.737,3.891-1.737c1.711,0,3.45,0.831,4.036,1.909
		c0.661-1.026,2.325-1.884,4.089-1.884c2.033,0,3.377,1.029,4.013,1.958c0.59-0.929,2.202-1.958,3.916-1.958
		c2.154,0,3.304,0.88,4.108,1.958c1.25-1.665,2.891-1.958,3.894-1.958c3.818,0,4.72,2.469,4.72,5.237v7.781H65.633"/>
	<path d="M79.043,21.752c-1.515,0-1.664,2.104-1.664,3.207s0.171,3.18,1.664,3.18s1.664-2.103,1.664-3.18
		C80.707,23.856,80.536,21.752,79.043,21.752 M78.97,31.688c-4.356,0-7.218-2.62-7.218-6.904c0-4.329,3.034-6.8,7.218-6.8
		c4.21,0,7.341,2.546,7.341,6.9C86.311,29.265,83.153,31.688,78.97,31.688"/>
	<path d="M95.216,31.1v-6.875c0-1.2-0.51-1.665-1.368-1.665c-0.881,0-1.443,0.758-1.443,1.762V31.1h-5.359V18.72h4.942l0.05,1.247
		c1.028-1.247,2.425-1.884,3.892-1.884c1.783,0,4.722,1.026,4.722,4.209V31.1H95.216"/>
	<path d="M118.712,31.1l-5.604-0.022c0,0-0.736-2.18-1.03-3.551c-0.488-1.662-0.538-2.373-0.538-2.373s-0.024,0.711-0.488,2.373
		c-0.269,1.274-1.029,3.573-1.029,3.573h-5.65l-3.722-12.38h5.824c0,0,0.661,2.127,0.907,3.325c0.363,1.371,0.439,2.18,0.439,2.18
		s0.073-0.784,0.464-2.18c0.269-1.269,0.93-3.325,0.93-3.325h4.895c0,0,0.661,2.056,0.931,3.325c0.417,1.471,0.465,2.18,0.465,2.18
		s0.05-0.685,0.465-2.18c0.244-1.173,0.905-3.325,0.905-3.325h5.556L118.712,31.1"/>
	<path d="M129.283,21.142c-1.053,0-1.762,0.829-1.86,1.882h3.646C130.971,22.022,130.262,21.142,129.283,21.142 M127.35,25.765
		c0.023,1.249,0.562,2.327,2.005,2.327c0.688,0,1.545-0.343,1.787-1.1h5.137c-0.095,0.535-0.389,1.173-0.659,1.588
		c-1.37,2.055-3.988,3.083-6.484,3.083c-4.575,0-7.317-2.716-7.44-6.607c-0.098-3.451,1.91-7.071,7.049-7.071
		c4.75,0,7.637,2.913,7.637,7.78H127.35z"/>
	<path d="M145.285,25.618c0,0-0.709,0.222-1.368,0.418c-0.419,0.122-1.469,0.318-1.469,1.149c0,0.416,0.341,0.931,1.076,0.907
		c1.396-0.05,1.761-0.856,1.761-2.081V25.618 M145.973,31.1l-0.149-1.102c-0.903,0.931-2.789,1.665-4.209,1.665
		c-0.903,0-2.959-0.17-4.037-1.614c-0.855-1.175-0.955-3.084-0.196-4.307c1.028-1.64,3.401-2.253,5.752-2.546
		c0.856-0.098,2.056-0.367,2.056-1.125c0-0.587-0.32-1.102-1.101-1.102c-0.784,0-1.471,0.662-1.471,1.493h-5.088l0.024-0.147
		c0.536-2.959,2.692-4.454,6.363-4.454c6.189,0,6.924,2.154,6.948,5.872l0.048,3.476c0.025,2.374,0.148,2.911,0.393,3.891H145.973z"
		/>
	<rect x="152.286" y="13.628" width="5.357" height="17.472"/>
	<path d="M164.494,31.516c-3.548,0-4.501-1.712-4.501-5.018v-4.354h-1.641V18.72h1.641v-5.091h5.359v5.091h2.103v3.425h-2.103v3.375
		c0,1.2,0.389,1.958,1.592,1.958c0.193,0,0.438-0.024,0.682-0.073c0.123-0.022,0.123-0.047,0.123-0.047v3.498
		C166.746,31.322,165.597,31.516,164.494,31.516"/>
	<path d="M182.312,31.1h-5.361V24.25c0-1.198-0.538-1.689-1.395-1.689c-0.855,0-1.419,0.784-1.419,1.787V31.1h-5.58V13.628h5.19
		v6.338c0.807-1.002,2.348-1.884,3.866-1.884c1.811,0,4.698,1.026,4.698,4.209V31.1"/>
	<path d="M192.243,22.741c1.662,0,4.445,0.44,4.445,3.383c0,3.156-2.783,3.626-4.445,3.626h-5.381v-7.009H192.243 M192.053,15.026
		c1.443,0,3.864,0.41,3.864,3.165c0,2.026-1.303,3.141-3.674,3.141h-5.381v-6.306H192.053z M185.468,13.641h-0.138v17.495h6.913
		c3.741,0,5.979-1.865,5.979-4.985c0-2.758-2.066-4.002-3.349-4.291c1.543-0.458,2.575-1.865,2.575-3.715
		c0-2.819-2.017-4.504-5.396-4.504H185.468z"/>
	<path d="M207.3,24.471v1.823c0,0.999-0.755,3.842-4.106,3.842c-1.609,0-2.731-0.974-2.731-2.37c0-1.854,1.414-2.236,2.911-2.64
		C204.524,24.821,206.178,24.573,207.3,24.471 M210.155,29.834l-0.17,0.015l-0.544,0.046c-0.305,0-0.707-0.118-0.707-1.14v-6.802
		c0-2.379-1.516-3.635-4.382-3.635c-2.805,0-4.487,1.392-4.744,3.912l-0.017,0.15h1.46l0.013-0.122
		c0.068-0.606,0.265-1.142,0.575-1.546c0.542-0.724,1.454-1.104,2.639-1.104c2.805,0,3.021,1.76,3.021,2.299v0.359
		c0,0.79-0.501,1.008-1.251,1.095c-1.796,0.251-4.021,0.643-5.335,1.417c-0.263,0.147-0.916,0.559-1.26,1.211
		c-0.535,0.951-0.569,2.432-0.077,3.522c0.571,1.249,1.898,1.938,3.745,1.938c1.911,0,3.344-0.825,4.226-2.324v0.183
		c0.033,1.263,0.639,1.874,1.852,1.874l0.977-0.171l-0.021-0.111V29.834z"/>
	<path d="M216.411,18.317c-1.702,0-3.172,0.926-3.892,2.308v-1.967h-1.433v12.478h1.433v-6.963c0-2.731,1.545-4.565,3.842-4.565
		c2.031,0,3.023,1.209,3.023,3.697v7.831h1.433v-7.831C220.817,22.071,220.817,18.317,216.411,18.317"/>
	<path d="M227.201,23.348c0.163-0.156,4.915-4.689,4.915-4.689h-1.943c0,0-5.837,5.574-6.271,5.988V13.641h-1.435v17.495h1.435
		v-4.709c0.081-0.073,2.017-1.834,2.227-2.021c0.172,0.25,4.605,6.73,4.605,6.73h1.754
		C232.488,31.136,227.328,23.534,227.201,23.348"/>
	<polygon fill="#FFC425" points="293.821,18.662 275.162,0 250.324,24.837 275.162,49.675 286.063,26.421 	"/>
	<polygon points="293.821,18.662 286.063,26.421 275.162,49.675 300,24.837 	"/>
</g>
</svg>
