<?xml version="1.0" encoding="utf-8"?>
<!-- Generator: Adobe Illustrator 17.0.0, SVG Export Plug-In . SVG Version: 6.00 Build 0)  -->
<!DOCTYPE svg PUBLIC "-//W3C//DTD SVG 1.1//EN" "http://www.w3.org/Graphics/SVG/1.1/DTD/svg11.dtd">
<svg version="1.1" id="Layer_1" xmlns="http://www.w3.org/2000/svg" xmlns:xlink="http://www.w3.org/1999/xlink" x="0px" y="0px"
	 width="445.445px" height="314.963px" viewBox="0 0 445.445 314.963" enable-background="new 0 0 445.445 314.963"
	 xml:space="preserve">
<g>
	<path fill="#010202" d="M236.544,101.039c7.386,1.987,39.838,17.22,32.452,56.396c-2.038,8.712-6.266,16.099-12.329,22.161h32.91
		C295.843,145.36,273.224,108.884,236.544,101.039z"/>
	<path fill="#010202" d="M184.58,178.934c20.581-2.904,39.381-19.716,41.418-34.49c3.159-17.474-6.47-32.911-24.861-36.732
		c-0.204,0-0.663-0.204-1.121-0.204c-0.663,0-9.629,0-16.353-1.783c0,0-4.025,3.158-2.445,8.966c0,0-9.171-9.629-3.362-22.365
		c0,0,2.904-6.063,12.329-12.329l0.204-0.204c2.445-3.159,8.711-8.508,17.678-12.533c4.483-2.038,12.329-4.942,21.04-5.807
		c39.839-3.821,61.338,26.848,61.338,26.848V44.898H154.829v134.698h14.315C177.855,179.596,179.893,179.8,184.58,178.934z"/>
	<path fill="#010202" d="M205.213,88.71c0,0,3.821-2.241,9.425-4.229c0.917,3.566,4.025,6.724,8.049,7.591
		c5.604,1.121,10.953-2.038,12.074-7.387c0.204-1.324,0.204-2.904-0.204-4.229c36.476-1.121,55.937,26.848,55.937,26.848V95.23
		c-5.401-5.399-20.378-15.894-37.394-17.728C234.098,75.057,217.949,79.948,205.213,88.71z"/>
	<path fill="#010202" d="M164.928,242.467l-10.1,26.884h5.611l2.244-6.275h9.386l2.244,6.275h6.071l-10.101-26.884H164.928z
		 M164.214,258.587l3.163-9.641l3.367,9.641H164.214z"/>
	<path fill="#010202" d="M193.853,242.467h-10.101l0.001,26.884h9.182c2.245,0,4.03-0.256,5.816-0.919
		c1.786-0.663,3.367-1.632,4.489-2.703s2.041-2.449,2.704-4.234c0.714-1.581,0.918-3.571,0.918-5.816
		c0-4.234-1.123-7.601-3.367-9.846C201.25,243.589,197.883,242.467,193.853,242.467z M200.535,259.505
		c-0.204,0.918-0.664,2.04-1.326,2.703s-1.326,1.326-2.449,1.786c-1.122,0.459-7.652,0.459-7.652,0.459v-17.242h4.489
		c1.326,0,2.449,0.204,3.367,0.663c0.918,0.459,1.581,1.123,2.244,1.786c0.664,0.663,1.122,1.581,1.326,2.704
		c0.255,1.122,0.459,2.244,0.459,3.571S200.739,258.383,200.535,259.505z"/>
	<polygon fill="#010202" points="227.215,260.169 216.247,242.467 211.299,242.467 211.299,269.351 216.706,269.351 
		216.706,251.853 227.674,269.351 232.826,269.351 232.826,242.467 227.215,242.467 	"/>
	<path fill="#010202" d="M259.709,245.578c-1.122-1.326-2.448-2.245-4.03-2.908c-1.531-0.714-3.367-0.919-5.356-0.919
		s-3.775,0.256-5.356,0.919c-1.581,0.664-2.908,1.786-4.03,2.908c-1.122,1.326-1.786,2.704-2.448,4.489
		c-0.714,1.786-0.919,3.571-0.919,5.816c0,2.245,0.256,4.03,0.919,5.816c0.408,1.786,1.326,3.367,2.448,4.489
		c1.122,1.326,2.449,2.245,4.03,2.908c1.531,0.714,3.316,0.919,5.356,0.919c1.99,0,3.775-0.204,5.356-0.919
		c1.581-0.664,2.908-1.786,4.03-2.908c1.122-1.326,1.786-2.703,2.449-4.489c0.714-1.786,0.919-3.571,0.919-5.816
		c0-2.245-0.256-4.03-0.919-5.816C261.75,248.281,260.831,246.7,259.709,245.578z M255.679,262.872
		c-1.326,1.53-2.908,2.449-5.356,2.449c-2.499,0-4.285-0.919-5.356-2.244c-1.123-1.581-1.786-4.03-1.786-6.938
		c0-3.112,0.664-5.356,1.786-6.938c1.326-1.53,2.908-2.448,5.356-2.448c2.194,0,4.03,0.663,5.356,2.244
		c1.123,1.786,1.786,4.03,1.786,6.938C257.465,259.047,256.801,261.291,255.679,262.872z"/>
	<path fill="#010202" d="M290.419,260.32v-0.151c-0.008,0.05-0.017,0.101-0.025,0.151H290.419z"/>
	<path fill="#010202" d="M282.767,264.146c-0.918,0.867-2.04,1.326-3.826,1.326c-1.99,0-3.571-0.867-4.694-2.449
		c-1.123-1.581-1.786-4.03-1.786-6.938c0-3.112,0.459-5.407,1.581-6.938c1.123-1.53,2.704-2.448,4.948-2.448
		c1.785,0,2.907,0.459,3.826,0.919c0.663,0.918,1.377,2.244,1.581,3.826l5.611-0.663c-0.204-1.377-0.663-2.703-1.122-3.826
		c-0.459-1.122-1.122-1.989-2.041-2.908c-0.919-0.664-1.836-1.327-3.163-1.786c-1.326-0.459-2.703-0.663-4.489-0.663
		c-1.785,0-3.571,0.256-5.152,0.919c-1.377,0.664-2.703,1.786-3.826,2.908c-1.122,1.326-1.786,2.703-2.449,4.489
		c-0.714,1.786-0.919,3.571-0.919,5.816c0,2.245,0.459,4.03,0.919,5.816c0.459,1.786,1.122,3.367,2.244,4.489
		c0.918,1.326,2.244,2.245,3.826,2.908c1.531,0.663,3.316,1.122,5.356,1.122c1.786,0,3.367-0.204,4.693-0.663
		c1.326-0.459,2.449-1.122,3.367-2.041c0.918-0.919,1.785-2.041,2.244-3.163c0.442-1.276,0.693-2.599,0.894-3.878h-6.046
		C284.093,261.901,283.685,263.227,282.767,264.146z"/>
	<path fill="#010202" d="M165.847,230.122h23.517v-28.669h-5.611v23.976l-18.211-0.001c-1.786,0-3.111-0.459-4.03-1.122
		c-0.867-0.918-1.326-2.04-1.326-3.826c0-1.581,0.459-2.704,1.122-3.367c0.663-0.664,2.04-1.122,3.826-1.326l-0.663-4.693
		c-1.989,0-3.571,0.408-5.152,1.326c-1.326,0.664-2.449,1.786-3.367,2.908c-0.663,1.581-1.122,3.163-1.122,4.948
		c0,3.367,0.918,5.816,2.704,7.397C159.368,229.204,162.021,230.122,165.847,230.122z"/>
	<path fill="#010202" d="M175.488,210.84c0.459,0,0.714,0,0.919,0.204c0,0.256,0.204,0.459,0.204,0.919l1.786-0.204
		c-0.256-0.919-0.46-1.582-0.919-2.041s-1.326-0.663-2.244-0.663c-0.918,0-1.785,0.204-2.244,0.663
		c-0.714,0.459-0.919,1.326-0.919,2.244v1.122h-0.919v1.786h7.193v-1.785h-4.183v-0.919
		C174.162,211.299,174.57,210.84,175.488,210.84z"/>
	<rect x="242.671" y="202.116" fill="#010202" width="5.356" height="5.356"/>
	<path fill="#010202" d="M252.414,225.428v4.948h26.884v-8.315c0-3.775-0.918-6.683-2.703-8.723
		c-1.785-1.989-4.489-2.908-7.856-2.908c-1.99,0-4.03,0.256-5.816,0.919l1.326,4.693c1.326-0.459,2.703-0.663,4.03-0.663
		c1.99,0,3.316,0.664,4.234,1.786c0.867,1.122,1.326,2.908,1.326,5.356v2.906H252.414z"/>
	<rect x="283.94" y="204.106" fill="#010202" width="5.356" height="26.016"/>
	<path fill="#010202" d="M287.562,197.576c0.459,0,0.714,0,0.919,0.204c0,0.256,0.204,0.459,0.204,0.919l1.786-0.204
		c-0.256-0.919-0.46-1.582-0.919-2.041c-0.459-0.459-1.326-0.663-2.244-0.663s-1.785,0.459-2.244,0.919
		c-0.714,0.459-0.919,1.326-0.919,2.244v1.122h-0.919v1.786h7.193v-1.786h-0.001v-0.051h-4.183v-1.122
		C286.235,198.035,286.643,197.576,287.562,197.576z"/>
	<path fill="#010202" d="M248.282,230.07v-19.946h-5.611v0.052v14.998h-30.709v-5.816c0-3.163-0.663-5.356-2.244-6.938
		c-1.581-1.581-3.826-2.244-6.733-2.244c-2.908,0-5.152,0.918-6.733,2.449c-1.581,1.581-2.448,3.826-2.448,6.733
		c0,3.367,1.122,6.274,3.163,8.06s5.152,2.703,8.978,2.703h0.663v0.663c0,2.244-0.204,3.367-0.919,4.03l2.704,4.234
		c0.459-0.204,0.919-0.663,1.326-0.919c1.581-1.581,2.244-4.948,2.244-8.06H248.282z M206.86,225.429h-0.254h-1.786
		c-3.826,0-5.611-2.244-5.611-5.816c0-1.581,0.204-2.704,0.918-3.367c0.663-0.919,1.581-1.122,2.908-1.122
		c0.919,0,1.581,0.204,2.244,0.459c0.459,0.204,0.919,0.919,1.122,1.581c0.204,0.919,0.459,2.449,0.459,4.03V225.429z"/>
</g>
</svg>
