<?xml version="1.0" encoding="utf-8"?>
<!-- Generator: Adobe Illustrator 17.0.0, SVG Export Plug-In . SVG Version: 6.00 Build 0)  -->
<!DOCTYPE svg PUBLIC "-//W3C//DTD SVG 1.1//EN" "http://www.w3.org/Graphics/SVG/1.1/DTD/svg11.dtd">
<svg version="1.1" id="Layer_1" xmlns="http://www.w3.org/2000/svg" xmlns:xlink="http://www.w3.org/1999/xlink" x="0px" y="0px"
	 width="841.89px" height="411px" viewBox="0 92.14 841.89 411" enable-background="new 0 92.14 841.89 411" xml:space="preserve">
<g>
	<path fill="#004669" d="M433.957,368.641h58.957V216.277h24.861v-44.75h-24.861v-7.458c0-18.824,13.851-18.824,24.861-18.824
		V100.85c-41.554,0-83.818,4.972-83.818,62.153v8.524h-22.02v44.75h22.02L433.957,368.641L433.957,368.641z"/>
	<polygon fill="#004669" points="543.341,368.641 602.303,368.641 602.303,105.822 543.341,105.822 	"/>
	<polygon fill="#004669" points="665.871,434.346 728.38,434.346 827.12,171.527 764.612,171.527 726.959,285.889 686.832,171.527 
		623.968,171.527 697.125,358.697 	"/>
	<path d="M62.528,461.172c-0.504,10.334-3.529,21.046-15.249,21.046c-10.586,0-18.526-9.578-18.526-33.396
		c0-23.189,6.805-34.153,18.526-34.153c10.082,0,14.871,7.435,15.249,22.306h15.627c0.252-20.038-10.586-36.925-32.01-36.925
		C25.35,400.05,13,416.937,13,448.444c0,32.262,12.98,48.393,33.145,48.393c21.046,0,31.884-16.383,32.01-35.665H62.528
		L62.528,461.172z"/>
	<path d="M87.229,448.438c0,28.608,11.342,48.393,34.027,48.393c23.567,0,34.153-21.172,34.153-48.393
		c0-28.608-11.342-48.393-34.153-48.393c-22.684,0-34.027,19.786-34.027,48.267V448.438L87.229,448.438z M102.982,448.438
		c0-23.693,6.553-34.153,18.274-34.153c11.846,0,18.4,10.46,18.4,34.153s-6.553,34.153-18.4,34.153
		c-11.72,0-18.274-10.46-18.274-34.027V448.438L102.982,448.438z"/>
	<path d="M168.137,495.067h15.375v-79.018h5.797c5.167,0,9.452,0.504,12.35,2.773c4.285,3.403,5.419,8.444,5.419,13.485
		c0,4.663-1.26,9.326-4.663,12.728c-2.899,2.773-6.931,3.907-11.468,4.033c-1.386,0.126-2.394,0.126-4.159,0.126l20.542,45.873
		h17.265l-18.022-37.303c5.419-1.89,9.83-5.671,12.98-11.72c2.394-4.411,3.277-9.83,3.277-15.123c0-9.326-3.025-16.509-8.318-21.928
		c-3.907-4.159-11.216-7.183-24.701-7.183h-21.676L168.137,495.067L168.137,495.067z"/>
	<path d="M236.19,401.809v93.258h15.375v-34.405h7.688c9.452,0,16.887-2.268,22.432-7.309c5.419-4.915,8.822-12.603,8.822-22.18
		c0-9.326-3.403-17.265-8.822-22.054c-5.545-5.041-12.854-7.309-22.432-7.309L236.19,401.809L236.19,401.809z M251.565,416.049
		h7.562c5.545,0,8.948,0.882,11.594,3.403c2.521,2.268,3.907,6.427,3.907,11.846c0,5.293-1.386,9.326-3.781,11.594
		c-2.773,2.773-6.175,3.529-11.72,3.529h-7.562L251.565,416.049L251.565,416.049z"/>
	<path d="M298.572,448.438c0,28.608,11.342,48.393,34.027,48.393c23.567,0,34.153-21.172,34.153-48.393
		c0-28.608-11.342-48.393-34.153-48.393c-22.684,0-34.027,19.786-34.027,48.267V448.438L298.572,448.438z M314.325,448.438
		c0-23.693,6.553-34.153,18.274-34.153c11.846,0,18.4,10.46,18.4,34.153s-6.553,34.153-18.4,34.153
		c-11.72,0-18.274-10.46-18.274-34.027V448.438L314.325,448.438z"/>
	<path d="M379.48,495.067h15.375v-79.018h5.797c5.167,0,9.452,0.504,12.35,2.773c4.285,3.403,5.419,8.444,5.419,13.485
		c0,4.663-1.26,9.326-4.663,12.728c-2.899,2.773-6.931,3.907-11.468,4.033c-1.386,0.126-2.394,0.126-4.159,0.126l20.542,45.873
		h17.265l-18.022-37.303c5.419-1.89,9.83-5.671,12.98-11.72c2.394-4.411,3.277-9.83,3.277-15.123c0-9.326-3.025-16.509-8.318-21.928
		c-3.907-4.159-11.216-7.183-24.701-7.183H379.48V495.067L379.48,495.067z"/>
	<path d="M460.262,473.522h23.945l5.923,21.55h15.627l-26.591-93.258h-14.493l-25.835,93.258h15.627L460.262,473.522
		L460.262,473.522z M480.174,459.402h-16.131l8.066-36.043L480.174,459.402L480.174,459.402z"/>
	<polygon points="516.091,495.067 531.466,495.067 531.466,416.049 548.353,416.049 548.353,401.809 499.204,401.809 
		499.204,416.049 516.091,416.049 	"/>
	<polygon points="559.822,495.067 604.56,495.067 604.56,480.826 575.197,480.826 575.197,453.737 604.56,453.737 604.56,439.616 
		575.197,439.616 575.197,416.049 604.56,416.049 604.56,401.809 559.822,401.809 	"/>
	<path fill="#00AFAD" d="M335.853,191.198v117.22c0,0.166,0.023,0.327,0.023,0.493c0.263,32.131,26.374,58.103,58.567,58.103
		v-58.109V191.193h-58.59V191.198z"/>
	<path fill="#CE2D31" d="M365.153,177.811L365.153,177.811c19.878,0,35.991-16.114,35.991-35.991v-0.006
		c0-19.878-16.114-35.991-35.991-35.991l0,0c-19.878,0-35.997,16.114-35.997,35.997v-0.006
		C329.156,161.691,345.27,177.811,365.153,177.811L365.153,177.811z"/>
</g>
</svg>
