<?xml version="1.0" encoding="utf-8"?>
<!-- Generator: Adobe Illustrator 15.0.0, SVG Export Plug-In . SVG Version: 6.00 Build 0)  -->
<!DOCTYPE svg PUBLIC "-//W3C//DTD SVG 1.1//EN" "http://www.w3.org/Graphics/SVG/1.1/DTD/svg11.dtd">
<svg version="1.1" id="Layer_1" xmlns="http://www.w3.org/2000/svg" xmlns:xlink="http://www.w3.org/1999/xlink" x="0px" y="0px"
	 width="208.5px" height="104.5px" viewBox="0 0 208.5 104.5" enable-background="new 0 0 208.5 104.5" xml:space="preserve">
<polygon fill-rule="evenodd" clip-rule="evenodd" points="69.206,74.355 69.75,74.355 70.077,74.469 70.513,74.583 70.622,74.583 
	70.838,74.811 71.167,75.038 71.276,75.38 71.494,75.724 73.018,75.038 72.693,74.469 72.366,74.011 72.038,73.444 71.603,73.1 
	70.949,72.759 70.513,72.646 69.861,72.528 69.206,72.528 "/>
<polygon fill="none" stroke="#000000" stroke-width="0.049" stroke-miterlimit="1" points="69.206,74.355 69.75,74.355 
	70.077,74.469 70.513,74.583 70.622,74.583 70.838,74.811 71.167,75.038 71.276,75.38 71.494,75.724 73.018,75.038 72.693,74.469 
	72.366,74.011 72.038,73.444 71.603,73.1 70.949,72.759 70.513,72.646 69.861,72.528 69.206,72.528 "/>
<rect x="18.802" y="60.402" fill-rule="evenodd" clip-rule="evenodd" fill="#FEE927" width="19.403" height="38.897"/>
<g>
	<path d="M38.206,100.371H18.801c-0.591,0-1.071-0.48-1.071-1.071V60.402c0-0.59,0.48-1.071,1.071-1.071h19.405
		c0.592,0,1.072,0.481,1.072,1.071V99.3C39.277,99.891,38.797,100.371,38.206,100.371z M19.873,98.229h17.262V61.474H19.873V98.229z
		"/>
	<path fill-rule="evenodd" clip-rule="evenodd" fill="#0061AF" d="M44.019,60.893h19.26v4.418c0,0,3.09-2.912,6.022-3.749
		c2.811-0.802,8.706-2.182,12.984,0.672c2.811,1.873,5.752,5.612,5.681,10.17c-0.161,10.039,0.075,27.192,0.075,27.192l-18.071-0.02
		V75.939c0,0,0.132-3.669-3.346-3.399c-1.468,0.111-3.458,2.272-3.458,2.272l-0.023,24.632h-19.14L44.019,60.893z"/>
	<path d="M88.04,100.666l-18.071-0.018l-1.07-1.072V75.939c0.009-0.362-0.087-1.336-0.621-1.882c-0.302-0.31-0.727-0.46-1.298-0.46
		l-0.274,0.009c-0.623,0.049-1.74,0.923-2.471,1.641l-0.022,24.197l-1.071,1.071h-19.14l-1.071-1.071l0.016-38.552l1.071-1.071
		h19.26l1.071,1.071v2.147c1.235-0.925,2.951-2.022,4.657-2.508c5.983-1.703,10.563-1.398,13.872,0.812
		c2.89,1.924,6.237,5.981,6.157,11.075c-0.158,9.909,0.073,26.99,0.077,27.162L88.04,100.666z M71.042,98.508l15.916,0.016
		c-0.049-3.937-0.198-17.652-0.062-26.137c0.065-4.232-2.763-7.634-5.205-9.264c-2.764-1.843-6.775-2.049-12.096-0.531
		c-2.642,0.753-5.553,3.472-5.583,3.499l-1.806-0.78v-3.347H45.089l-0.015,36.409h16.998l0.022-23.561l0.283-0.725
		c0.38-0.414,2.367-2.479,4.165-2.614c1.383-0.109,2.489,0.278,3.284,1.104c1.252,1.297,1.223,3.19,1.214,3.402L71.042,98.508z"/>
	<path fill-rule="evenodd" clip-rule="evenodd" fill="#0061AF" d="M127.103,62.754V79.7c0,0-2.944-1.606-7.494-2.407
		c-5.25-0.93-8.836,0.265-8.836,2.81c0,2.544,3.212,4.282,8.434,3.613c5.601-0.718,7.896-1.74,7.896-1.74l0.059,16.597
		c0,0-15.72,4.955-25.759-0.708c-13.899-7.839-12.928-28.231,0.403-34.629C115.19,56.81,127.103,62.754,127.103,62.754"/>
	<path d="M113.58,101.649c-5.073,0-9.348-0.96-12.704-2.854c-6.869-3.874-10.813-10.974-10.549-18.989
		c0.254-7.678,4.475-14.398,11.016-17.536c4.273-2.052,8.834-3.093,13.556-3.093c7.352,0,12.468,2.512,12.683,2.619l0.593,0.957
		V79.7l-1.582,0.941c-0.028-0.017-2.868-1.536-7.17-2.294c-1.115-0.197-2.167-0.298-3.127-0.298c-2.053,0-4.451,0.537-4.451,2.053
		c0.001,1.933,2.984,3.091,7.227,2.552c5.321-0.684,7.578-1.648,7.601-1.66l1.503,0.977l0.059,16.598l-0.75,1.024
		C127.217,99.679,120.877,101.649,113.58,101.649z M114.898,61.32c-4.399,0-8.648,0.969-12.629,2.879
		C96.45,66.993,92.695,73,92.468,79.877c-0.238,7.204,3.299,13.578,9.46,17.055c3.031,1.708,6.951,2.575,11.651,2.575
		c5.559,0,10.644-1.231,12.507-1.74l-0.05-14.3c-1.292,0.379-3.464,0.897-6.695,1.311c-6.567,0.847-9.641-1.936-9.641-4.675
		c0-2.026,1.732-4.195,6.594-4.195c1.086,0,2.263,0.112,3.5,0.33c2.72,0.479,4.881,1.231,6.236,1.792V63.451
		C124.536,62.828,120.343,61.32,114.898,61.32z"/>
	<path fill-rule="evenodd" clip-rule="evenodd" fill="#FFFFFF" d="M169.215,99.463l-6.96-17.285l4.013-15.931
		c0,0-3.347-5.724-16.732-5.889c-10.841-0.135-17.536,4.415-17.536,4.415v11.78c0,0,5.215-2.747,9.772-2.81
		c9.637-0.135,8.301,5.471,8.301,5.471s-12.626-3.97-17.671,4.701c-4.283,7.364,0.118,15.93,8.568,15.93
		c5.486,0,9.367-3.079,9.367-3.079v2.678L169.215,99.463z M150.205,90.876c0,0-1.032,1.438-4.283,1.206
		c-3.756-0.268-3.728-5.607-0.938-6.693c2.412-0.937,5.24,0.133,5.24,0.133L150.205,90.876z"/>
	<path d="M140.97,100.918c-4.253,0-7.833-1.982-9.821-5.44c-2.089-3.633-1.967-8.155,0.327-12.101
		c2.338-4.016,6.539-6.141,12.15-6.141c2.188,0,4.121,0.323,5.356,0.596c-0.086-0.349-0.25-0.739-0.553-1.113
		c-1.009-1.248-3.193-1.906-6.319-1.906l-0.324,0.003c-4.251,0.058-9.238,2.658-9.288,2.687c-0.331,0.174-0.731,0.162-1.052-0.03
		c-0.322-0.195-0.519-0.544-0.519-0.918v-11.78c0-0.355,0.177-0.686,0.47-0.886c0.276-0.188,6.897-4.604,17.666-4.604l0.485,0.003
		c13.833,0.172,17.494,6.165,17.644,6.418c0.141,0.244,0.183,0.532,0.114,0.805l-3.929,15.591l6.83,16.962
		c0.133,0.33,0.093,0.705-0.105,1c-0.2,0.295-0.532,0.472-0.888,0.472h-0.001l-18.878-0.019c-0.591,0-1.07-0.481-1.07-1.071v-0.723
		C147.521,99.684,144.581,100.918,140.97,100.918z M143.626,79.379c-4.875,0-8.34,1.706-10.299,5.076
		c-1.904,3.274-2.025,6.995-0.323,9.953c1.597,2.774,4.5,4.366,7.966,4.366c5.023,0,8.668-2.818,8.704-2.849
		c0.323-0.254,0.761-0.3,1.131-0.121c0.368,0.179,0.604,0.553,0.604,0.962v1.608l16.221,0.017l-6.368-15.814
		c-0.085-0.209-0.1-0.441-0.045-0.662l3.89-15.44c-0.944-1.125-4.912-4.915-15.583-5.045l-0.459-0.003
		c-8.514,0-14.351,2.993-15.993,3.946v9.491c1.959-0.855,5.443-2.147,8.686-2.191l0.354-0.003c3.884,0,6.583,0.925,8.021,2.75
		c1.478,1.87,1.003,3.955,0.981,4.043c-0.068,0.288-0.254,0.535-0.512,0.684c-0.257,0.144-0.564,0.181-0.85,0.091
		C149.725,80.228,146.967,79.379,143.626,79.379z M146.614,93.179c-0.243,0-0.498-0.009-0.77-0.028
		c-2.07-0.148-3.553-1.545-3.871-3.646c-0.291-1.922,0.517-4.295,2.621-5.112c0.782-0.305,1.662-0.458,2.617-0.458
		c1.819,0,3.326,0.562,3.391,0.585c0.417,0.158,0.693,0.559,0.692,1.007l-0.019,5.354c-0.001,0.221-0.071,0.438-0.201,0.62
		C150.952,91.673,149.779,93.179,146.614,93.179z M147.212,86.074c-0.689,0-1.309,0.107-1.841,0.314
		c-1.006,0.39-1.44,1.729-1.279,2.795c0.097,0.64,0.473,1.727,1.905,1.829c1.804,0.133,2.754-0.325,3.139-0.6l0.014-4.092
		C148.663,86.202,147.966,86.074,147.212,86.074z"/>
	<path fill-rule="evenodd" clip-rule="evenodd" fill="#FFFFFF" d="M168.297,71.789l26.674-22.007l-0.032,11.013l8.045-0.035
		l-0.019,11.088l-8.164-0.019v7.437c0,0-0.534,4.954,3.611,5.222c2.554,0.165,4.762-2.314,4.762-2.314l-0.016,14.898
		c0,0-4.074,3.444-11.437,3.31c-16.756-0.305-16.062-15.09-16.062-15.09V71.733L168.297,71.789z"/>
	<path d="M192.143,101.454l-0.44-0.002c-5.602-0.103-9.959-1.773-12.949-4.964c-4.416-4.713-4.176-10.983-4.164-11.248
		l-0.001-12.428l-6.283,0.048c-0.455,0.124-0.861-0.278-1.015-0.706c-0.154-0.426-0.024-0.901,0.325-1.189l26.673-22.008
		c0.322-0.265,0.768-0.316,1.141-0.145c0.375,0.18,0.614,0.559,0.613,0.972l-0.03,9.935l6.967-0.03c0.001,0,0.004,0,0.005,0
		c0.283,0,0.556,0.114,0.757,0.314c0.202,0.199,0.314,0.474,0.314,0.76l-0.019,11.087c-0.001,0.284-0.114,0.556-0.316,0.756
		c-0.199,0.202-0.472,0.313-0.755,0.313c-0.001,0-0.001,0-0.002,0l-7.091-0.017v6.363c-0.008,0.133-0.201,2.163,0.788,3.33
		c0.425,0.502,1.021,0.771,1.82,0.822c0.004,0,0.008,0,0.01,0c2.1,0,3.868-1.94,3.886-1.959c0.297-0.33,0.765-0.439,1.182-0.285
		c0.413,0.16,0.688,0.558,0.688,0.999l-0.016,14.898c-0.002,0.316-0.14,0.613-0.381,0.818
		C203.677,98.036,199.545,101.454,192.143,101.454z M175.659,70.662c0.282,0,0.554,0.111,0.754,0.312
		c0.203,0.2,0.317,0.475,0.317,0.76v13.558c-0.004,0.105-0.199,5.71,3.602,9.749c2.578,2.742,6.418,4.179,11.409,4.27l0.401,0.005
		c5.376,0,8.84-2.027,9.945-2.784l0.013-12.089c-0.925,0.592-2.124,1.124-3.443,1.124l-0.313-0.009
		c-1.397-0.091-2.518-0.625-3.328-1.588c-1.576-1.875-1.292-4.698-1.279-4.817l-0.007-7.322c0-0.284,0.114-0.558,0.315-0.758
		c0.2-0.2,0.473-0.313,0.756-0.313c0.001,0,0.001,0,0.003,0l7.092,0.016l0.016-8.938l-6.969,0.03c-0.001,0-0.003,0-0.004,0
		c-0.284,0-0.556-0.114-0.757-0.313c-0.202-0.202-0.314-0.477-0.314-0.76l0.026-8.733l-22.589,18.636l4.346-0.033
		C175.653,70.662,175.656,70.662,175.659,70.662z"/>
	<path fill-rule="evenodd" clip-rule="evenodd" d="M28.415,88.652c4.74,0.011,8.969-3.215,9.188-8.437
		c0.212-5.057-4.478-8.944-9.181-8.889c-4.825,0.056-8.701,3.83-8.84,8.889C19.446,85.036,23.699,88.652,28.415,88.652"/>
	<path fill="none" stroke="#000000" stroke-width="0.227" stroke-miterlimit="1" d="M28.415,88.652
		c4.74,0.011,8.969-3.215,9.188-8.437c0.212-5.057-4.478-8.944-9.181-8.889c-4.825,0.056-8.701,3.83-8.84,8.889
		C19.446,85.036,23.699,88.652,28.415,88.652z"/>
	<path fill-rule="evenodd" clip-rule="evenodd" fill="#0061AF" d="M151.071,61.362l0.177,37.171l16.523,0.019l-6.126-16.374
		l3.874-15.863c0,0-3.881-3.881-12.849-4.952H151.071z"/>
	<path fill="none" stroke="#000000" stroke-width="0.065" stroke-miterlimit="1" d="M151.071,61.362l0.177,37.171l16.523,0.019
		l-6.126-16.374l3.874-15.863c0,0-3.881-3.881-12.849-4.952H151.071z"/>
	<path fill-rule="evenodd" clip-rule="evenodd" fill="#0061AF" d="M191.762,53.653l0.081,45.707
		c4.696,0.283,8.233-1.829,10.15-2.726V84.216c-0.985,0.462-2.805,0.913-3.945,0.839c-3.986-0.256-4.123-4.985-4.123-4.985v-9.049
		l7.899,0.014v-9.271l-7.86,0.03l-0.044-10.041L191.762,53.653z"/>
	<path fill="none" stroke="#000000" stroke-width="0.065" stroke-miterlimit="1" d="M191.762,53.653l0.081,45.707
		c4.696,0.283,8.233-1.829,10.15-2.726V84.216c-0.985,0.462-2.805,0.913-3.945,0.839c-3.986-0.256-4.123-4.985-4.123-4.985v-9.049
		l7.899,0.014v-9.271l-7.86,0.03l-0.044-10.041L191.762,53.653z"/>
	<path fill-rule="evenodd" clip-rule="evenodd" fill="#D9212A" d="M180.78,62.833l0.017,32.528c0,0-3.084-3.244-3.632-5.354
		c-0.937-3.614-0.667-4.016-0.667-4.016l-0.135-15.336l-5.22-0.058"/>
	<rect x="45.063" y="61.896" fill-rule="evenodd" clip-rule="evenodd" fill="#FFFFFF" width="9.189" height="9.224"/>
	<rect x="44.938" y="80.82" fill-rule="evenodd" clip-rule="evenodd" fill="#FFFFFF" width="9.188" height="8.998"/>
	<polygon fill-rule="evenodd" clip-rule="evenodd" fill="#FFFFFF" points="54.351,71.336 64.99,71.359 64.99,71.841 64.1,72.651 
		62.808,73.672 62.24,74.332 62.056,74.98 62.097,80.635 54.351,80.635 	"/>
	<rect x="54.197" y="90.104" fill-rule="evenodd" clip-rule="evenodd" fill="#FFFFFF" width="7.899" height="8.312"/>
	<polyline fill-rule="evenodd" clip-rule="evenodd" fill="#FFFFFF" points="75.76,81.144 75.76,89.761 70.976,89.761 70.976,81.144 
			"/>
	<polyline fill-rule="evenodd" clip-rule="evenodd" fill="#FFFFFF" points="86.923,71.474 86.923,81.002 75.915,81.002 
		75.915,71.474 	"/>
	<polyline fill-rule="evenodd" clip-rule="evenodd" fill="#FFFFFF" points="86.923,90.027 86.923,98.491 75.915,98.491 
		75.915,90.027 	"/>
	<path fill-rule="evenodd" clip-rule="evenodd" fill="#FFFFFF" d="M65.083,65.779c0,0,1.483-2.175,4.192-3.079
		c2.711-0.903,6.383-1.071,6.383-1.071v9.705h-9.495h-1.09L65.083,65.779z"/>
	<path fill="#EA2A2D" d="M119.602,76.995c5.126,0.904,6.467,1.652,6.467,1.652v-3.839H93.198c-0.911,3.514-0.992,7.26-0.2,10.853
		h33.082l-0.012-2.784c0,0-0.611,0.546-6.92,1.353c-5.88,0.753-9.496-1.204-9.496-4.069
		C109.652,77.297,113.689,75.949,119.602,76.995"/>
	<path fill="none" stroke="#000000" stroke-width="0" stroke-linecap="round" stroke-linejoin="round" stroke-miterlimit="1" d="
		M119.602,76.995c5.126,0.904,6.467,1.652,6.467,1.652v-3.839H93.198c-0.911,3.514-0.992,7.26-0.2,10.853h33.082l-0.012-2.784
		c0,0-0.611,0.546-6.92,1.353c-5.88,0.753-9.496-1.204-9.496-4.069C109.652,77.297,113.689,75.949,119.602,76.995z"/>
	<path fill="#FFFFFF" d="M125.899,85.572l-32.891,0.035c0,0,0.631,2.392,1.969,4.534c1.339,2.14,3.422,4.15,3.422,4.15l27.632,0.002
		"/>
	<path fill="#FFFFFF" d="M126.041,74.841l-32.769-0.014c0,0,0.857-2.54,2.195-4.683c1.34-2.143,3.955-4.151,3.955-4.151
		l26.644-0.004"/>
	<polygon fill-rule="evenodd" clip-rule="evenodd" fill="#C0C2C4" points="35.093,19.334 37.164,25.037 39.775,19.678 45.332,21.16 
		43.045,15.571 47.729,12.039 42.066,10.442 42.066,4.284 37.489,8.049 33.022,4.054 32.916,10.213 27.25,11.581 31.825,15.344 
		29.21,20.816 	"/>
	<path fill="#717275" d="M37.404,25.153l-0.493-0.026l-1.988-5.475l-5.648,1.425L28.968,20.7l2.525-5.282l-4.413-3.63l0.107-0.467
		l5.464-1.32l0.104-5.951l0.446-0.195l4.294,3.841l4.4-3.618l0.437,0.207v5.956l5.468,1.541l0.089,0.472l-4.52,3.409l2.209,5.396
		l-0.316,0.359l-5.344-1.424L37.404,25.153z M35.028,19.073l0.317,0.17l1.854,5.108l2.335-4.79l0.309-0.142l5.036,1.343
		l-2.082-5.089l0.086-0.316l4.253-3.207l-5.144-1.45l-0.194-0.258V4.852l-4.14,3.404L37.31,8.249l-4.03-3.604l-0.098,5.572
		l-0.205,0.256l-5.144,1.243l4.161,3.421l0.072,0.323l-2.371,4.957L35.028,19.073z"/>
	<polygon fill-rule="evenodd" clip-rule="evenodd" fill="#C0C2C4" points="45.127,44.609 47.197,50.31 49.701,44.837 55.367,46.319 
		53.08,40.847 57.653,37.312 52.099,35.602 52.099,29.557 47.523,33.208 42.95,29.329 42.95,35.487 37.176,36.856 41.751,40.619 
		39.135,46.092 	"/>
	<path fill="#717275" d="M47.441,50.421L46.945,50.4l-1.987-5.473l-5.759,1.424l-0.306-0.376l2.525-5.282l-4.412-3.63l0.108-0.468
		l5.568-1.319v-5.947l0.44-0.204l4.405,3.736l4.404-3.514l0.435,0.209v5.848l5.366,1.652l0.085,0.467l-4.411,3.409l2.208,5.284
		l-0.315,0.36l-5.448-1.425L47.441,50.421z M45.063,44.349l0.316,0.17l1.846,5.084l2.231-4.878l0.312-0.146l5.143,1.346
		l-2.079-4.975l0.083-0.314l4.166-3.219l-5.062-1.559l-0.188-0.256v-5.489l-4.141,3.305l-0.34-0.005l-4.133-3.504v5.579
		l-0.206,0.261l-5.249,1.245l4.157,3.419l0.072,0.322l-2.372,4.962L45.063,44.349z"/>
	<polygon fill-rule="evenodd" clip-rule="evenodd" fill="#C0C2C4" points="12.515,33.939 14.585,39.643 17.092,34.17 22.864,35.767 
		20.466,30.18 25.042,26.531 19.488,25.049 19.488,18.89 14.912,22.654 10.445,18.776 10.338,24.818 4.671,26.188 9.249,29.949 
		6.524,35.309 	"/>
	<path fill="#717275" d="M14.828,39.754l-0.495-0.021l-1.989-5.479l-5.761,1.314l-0.297-0.381l2.627-5.168l-4.411-3.626l0.107-0.467
		l5.466-1.32l0.104-5.835l0.442-0.197l4.296,3.729l4.402-3.62l0.437,0.206v5.954l5.355,1.43l0.099,0.467l-4.417,3.521l2.318,5.401
		l-0.317,0.362l-5.553-1.536L14.828,39.754z M12.456,33.68l0.312,0.17l1.847,5.087l2.235-4.878l0.313-0.146l5.236,1.447
		l-2.179-5.075l0.079-0.313l4.161-3.318l-5.041-1.346l-0.198-0.258v-5.592l-4.139,3.404l-0.345-0.004l-4.033-3.503l-0.098,5.469
		l-0.204,0.255l-5.146,1.244l4.162,3.42l0.069,0.328l-2.466,4.85L12.456,33.68z"/>
	<polygon fill-rule="evenodd" clip-rule="evenodd" fill="#C0C2C4" points="26,51.502 28.615,48.764 26.98,45.231 30.248,46.939 
		32.644,44.433 32.099,47.967 35.366,49.675 31.772,50.477 31.227,54.236 29.592,50.816 	"/>
	<path fill="#717275" d="M30.985,54.354l-1.545-3.235l-3.391,0.646l-0.244-0.448l2.49-2.604l-1.558-3.367l0.367-0.35l3.088,1.615
		l2.256-2.363l0.459,0.229l-0.516,3.344l3.098,1.619l-0.066,0.498l-3.414,0.762l-0.518,3.579L30.985,54.354z M29.542,50.554
		l0.292,0.146l1.255,2.626l0.418-2.889l0.207-0.221l2.879-0.645l-2.619-1.368l-0.141-0.279l0.416-2.693l-1.808,1.895l-0.318,0.051
		l-2.569-1.343l1.304,2.818l-0.049,0.298l-2.038,2.131L29.542,50.554z"/>
	<polygon fill-rule="evenodd" clip-rule="evenodd" fill="#C0C2C4" points="14.397,76.446 16.575,82.149 19.08,76.674 24.636,78.157 
		22.35,72.685 26.923,69.035 21.369,67.553 21.369,61.283 16.902,65.045 12.327,61.169 12.22,67.211 6.553,68.694 11.13,72.456 
		8.514,77.815 	"/>
	<path fill="#717275" d="M16.819,82.261l-0.494-0.016l-2.095-5.484l-5.655,1.315l-0.301-0.379l2.523-5.169L6.383,68.9l0.102-0.465
		l5.471-1.431l0.104-5.841l0.44-0.199l4.403,3.729l4.294-3.616l0.439,0.205v6.065l5.355,1.429l0.099,0.468l-4.416,3.522l2.209,5.287
		l-0.316,0.36L19.23,76.99L16.819,82.261z M14.337,76.187l0.31,0.165l1.95,5.105l2.239-4.895l0.312-0.146l5.031,1.342l-2.078-4.972
		l0.08-0.312l4.159-3.318L21.3,67.811l-0.199-0.258v-5.693l-4.027,3.391h-0.345l-4.145-3.512l-0.098,5.478l-0.2,0.253l-5.159,1.351
		l4.171,3.431l0.071,0.325l-2.369,4.853L14.337,76.187z"/>
</g>
</svg>
