<?xml version="1.0" encoding="utf-8"?>
<!-- Generator: Adobe Illustrator 17.0.0, SVG Export Plug-In . SVG Version: 6.00 Build 0)  -->
<!DOCTYPE svg PUBLIC "-//W3C//DTD SVG 1.1//EN" "http://www.w3.org/Graphics/SVG/1.1/DTD/svg11.dtd">
<svg version="1.1" id="Layer_1" xmlns="http://www.w3.org/2000/svg" xmlns:xlink="http://www.w3.org/1999/xlink" x="0px" y="0px"
	 width="537.119px" height="433.469px" viewBox="152.387 51.74 537.119 433.469"
	 enable-background="new 152.387 51.74 537.119 433.469" xml:space="preserve">
<g>
	<path d="M414.039,436.205c6.849,0,12.402-5.552,12.402-12.402s-5.552-12.402-12.402-12.402H178.407
		c-6.849,0-12.402,5.552-12.402,12.402s5.552,12.402,12.402,12.402H414.039z M607.405,140.115
		c-13.193-8.635-29.297-11.619-44.708-8.284L464.6,152.678l-138.105-98.63c-3.613-2.576-8.326-3.03-12.364-1.191l-53.997,24.729
		c-6.228,2.851-8.965,10.211-6.114,16.438c0.427,0.934,0.969,1.811,1.613,2.611l69.003,85.795l-66.15,14.076L218.9,161.943
		c-2.935-2.581-6.918-3.62-10.74-2.803l-45.961,9.773c-6.709,1.445-10.976,8.055-9.531,14.764c0.21,0.976,0.537,1.923,0.974,2.821
		l39.623,81.107c16.656,34.223,54.503,52.676,91.723,44.72l302.415-64.29c15.514-3.286,28.821-12.439,37.465-25.746
		c8.644-13.307,11.583-29.194,8.284-44.696C629.923,162.161,620.651,148.665,607.405,140.115L607.405,140.115z M604.057,208.771
		c-4.972,7.718-12.829,13.122-21.815,15.006l-302.415,64.278c-26.085,5.594-52.619-7.343-64.278-31.339l-32.654-66.845l24.357-5.171
		l39.586,34.563c2.927,2.58,6.933,3.596,10.727,2.79l91.946-19.545c0.223-0.05,0.397-0.211,0.62-0.26
		c0.964-0.286,1.889-0.69,2.753-1.203c0.484-0.273,0.992-0.459,1.426-0.794c0.124-0.087,0.273-0.124,0.384-0.211
		c0.496-0.384,0.744-0.93,1.141-1.364c0.608-0.657,1.24-1.253,1.687-2.021c0.422-0.707,0.62-1.463,0.893-2.232
		c0.26-0.732,0.57-1.426,0.682-2.207c0.136-0.893,0.037-1.773-0.025-2.666c-0.037-0.595,0.124-1.153-0.012-1.749
		c-0.025-0.136-0.124-0.248-0.161-0.372c-0.198-0.806-0.62-1.525-0.992-2.294c-0.36-0.744-0.633-1.513-1.116-2.17
		c-0.087-0.112-0.112-0.248-0.198-0.372L284.95,93.497l32.988-15.105l136.704,97.638c0.074,0.062,0.174,0.062,0.248,0.124
		c0.707,0.471,1.525,0.707,2.332,1.042c0.719,0.298,1.389,0.707,2.133,0.868c0.496,0.099,1.017,0,1.525,0.037
		c1.104,0.087,2.195,0.186,3.262-0.012c0.099-0.025,0.198,0.012,0.298,0l103.43-21.988c8.969-1.958,18.348-0.219,26.019,4.824
		c7.719,4.977,13.123,12.838,15.006,21.827C610.821,191.723,609.079,201.092,604.057,208.771L604.057,208.771z"/>
	<g>
		<path d="M510.832,459.879h66.95v25.33H479.3V332.18h31.531v127.699H510.832z"/>
		<path d="M689.506,357.72H642.63v127.489H611.1V357.72h-46.245v-25.54h124.651V357.72z"/>
	</g>
</g>
</svg>
