<?xml version="1.0" encoding="utf-8"?>
<!-- Generator: Adobe Illustrator 17.0.0, SVG Export Plug-In . SVG Version: 6.00 Build 0)  -->
<!DOCTYPE svg PUBLIC "-//W3C//DTD SVG 1.1//EN" "http://www.w3.org/Graphics/SVG/1.1/DTD/svg11.dtd">
<svg version="1.1" id="Layer_1" xmlns="http://www.w3.org/2000/svg" xmlns:xlink="http://www.w3.org/1999/xlink" x="0px" y="0px"
	 width="461.221px" height="467.416px" viewBox="197.715 74.41 461.221 467.416"
	 enable-background="new 197.715 74.41 461.221 467.416" xml:space="preserve">
<g>
	<path d="M445.748,446.46h-223.23V198.427h397.3v135.116c0,6.849,5.552,12.402,12.402,12.402s12.402-5.552,12.402-12.402V86.812
		c0-6.849-5.552-12.402-12.402-12.402H210.117c-6.849,0-12.402,5.552-12.402,12.402v372.05c0,6.849,5.552,12.402,12.402,12.402
		h235.632c6.849,0,12.402-5.552,12.402-12.402S452.598,446.46,445.748,446.46z M619.818,99.213v74.41h-397.3v-74.41H619.818z"/>
	<path d="M259.723,148.82H379.04c6.849,0,12.402-5.552,12.402-12.402c0-6.849-5.552-12.402-12.402-12.402H259.723
		c-6.849,0-12.402,5.552-12.402,12.402C247.322,143.268,252.874,148.82,259.723,148.82z M491.3,238.856
		c-0.002-6.849-5.557-12.4-12.406-12.397c-6.849,0.002-12.4,5.557-12.397,12.406c0.001,3.491,1.474,6.819,4.055,9.168v221.022
		c-0.002,6.849,5.549,12.403,12.399,12.405c1.726,0,3.434-0.36,5.013-1.057l45.985-20.314l32.84,74.348
		c2.776,6.265,10.103,9.096,16.37,6.325l48.912-21.666c6.257-2.771,9.087-10.085,6.325-16.345l-32.827-74.36l45.985-20.302
		c6.267-2.781,9.092-10.116,6.311-16.382c-0.698-1.573-1.715-2.984-2.988-4.142L491.3,238.856z M584.201,410.706
		c-6.265,2.776-9.096,10.103-6.325,16.37l32.827,74.373l-26.23,11.608l-32.84-74.348c-2.786-6.254-10.103-9.081-16.37-6.325
		l-39.909,17.623V276.074l128.729,117.022L584.201,410.706L584.201,410.706z"/>
</g>
</svg>
