<?xml version="1.0" encoding="utf-8"?>
<!-- Generator: Adobe Illustrator 17.0.0, SVG Export Plug-In . SVG Version: 6.00 Build 0)  -->
<!DOCTYPE svg PUBLIC "-//W3C//DTD SVG 1.1//EN" "http://www.w3.org/Graphics/SVG/1.1/DTD/svg11.dtd">
<svg version="1.1" id="Layer_1" xmlns="http://www.w3.org/2000/svg" xmlns:xlink="http://www.w3.org/1999/xlink" x="0px" y="0px"
	 width="260.125px" height="259.106px" viewBox="289.971 167.365 260.125 259.106"
	 enable-background="new 289.971 167.365 260.125 259.106" xml:space="preserve">
<g>
	<path d="M375.553,167.365h-56.208c-16.197,0-29.374,13.177-29.374,29.375v56.207c0,16.197,13.177,29.375,29.374,29.375h56.208
		c16.197,0,29.375-13.177,29.375-29.375V196.74C404.928,180.542,391.75,167.365,375.553,167.365z M388.928,252.946
		c0,7.375-6,13.375-13.375,13.375h-56.208c-7.375,0-13.374-6-13.374-13.375V196.74c0-7.375,6-13.375,13.374-13.375h56.208
		c7.375,0,13.375,6,13.375,13.375V252.946z"/>
	<path d="M375.553,292.28h-56.208c-16.197,0-29.374,13.177-29.374,29.374v56.207c0,16.197,13.177,29.374,29.374,29.374h56.208
		c16.197,0,29.375-13.177,29.375-29.374v-56.207C404.928,305.457,391.75,292.28,375.553,292.28z M388.928,377.861
		c0,7.374-6,13.374-13.375,13.374h-56.208c-7.375,0-13.374-6-13.374-13.374v-56.207c0-7.374,6-13.374,13.374-13.374h56.208
		c7.375,0,13.375,6,13.375,13.374V377.861z"/>
	<path d="M446.656,282.321h56.207c16.197,0,29.375-13.177,29.375-29.375V196.74c0-16.197-13.178-29.375-29.375-29.375h-56.207
		c-16.197,0-29.374,13.177-29.374,29.375v56.207C417.282,269.144,430.459,282.321,446.656,282.321z M433.282,196.74
		c0-7.375,6-13.375,13.374-13.375h56.207c7.375,0,13.375,6,13.375,13.375v56.207c0,7.375-6,13.375-13.375,13.375h-56.207
		c-7.374,0-13.374-6-13.374-13.375L433.282,196.74L433.282,196.74z"/>
	<path d="M547.805,413.121l-26.639-26.639c7.608-9.881,12.148-22.241,12.148-35.648c0-32.287-26.268-58.554-58.555-58.554
		s-58.554,26.267-58.554,58.554s26.267,58.555,58.554,58.555c13.253,0,25.486-4.432,35.311-11.883l26.675,26.675
		c3.054,3.054,8.006,3.054,11.06,0C550.859,421.127,550.859,416.175,547.805,413.121z M432.206,350.834
		c0-23.464,19.09-42.554,42.554-42.554c23.465,0,42.555,19.09,42.555,42.554c0,23.465-19.09,42.555-42.555,42.555
		C451.296,393.389,432.206,374.299,432.206,350.834z"/>
</g>
</svg>
