<?xml version="1.0" encoding="utf-8"?>
<!-- Generator: Adobe Illustrator 17.0.0, SVG Export Plug-In . SVG Version: 6.00 Build 0)  -->
<!DOCTYPE svg PUBLIC "-//W3C//DTD SVG 1.1//EN" "http://www.w3.org/Graphics/SVG/1.1/DTD/svg11.dtd">
<svg version="1.1" id="Layer_1" xmlns="http://www.w3.org/2000/svg" xmlns:xlink="http://www.w3.org/1999/xlink" x="0px" y="0px"
	 width="446.83px" height="410.957px" viewBox="57.726 78.161 446.83 410.957"
	 enable-background="new 57.726 78.161 446.83 410.957" xml:space="preserve">
<path d="M470.69,251.148H365.996L248.217,89.74c-9.113-12.546-26.671-15.33-39.218-6.217c-10.509,7.633-14.411,21.478-9.434,33.476
	l55.336,134.149H140.93l-37.118-55.994c-7.687-11.561-23.291-14.701-34.852-7.014c-9.423,6.266-13.498,18.056-9.955,28.804
	l22.323,67.415l-22.323,67.415c-4.361,13.181,2.79,27.401,15.971,31.761c10.758,3.559,22.568-0.52,28.836-9.959l37.106-55.994
	h113.376L199.565,450.28c-5.942,14.323,0.853,30.751,15.176,36.693c11.998,4.977,25.843,1.075,33.476-9.434l116.724-159.957H470.69
	c18.346,0.354,33.505-14.23,33.86-32.576c0.354-18.346-14.23-33.505-32.576-33.86C471.546,251.139,471.118,251.139,470.69,251.148
	L470.69,251.148z"/>
</svg>
