<?xml version="1.0" encoding="utf-8"?>
<!-- Generator: Adobe Illustrator 17.0.0, SVG Export Plug-In . SVG Version: 6.00 Build 0)  -->
<!DOCTYPE svg PUBLIC "-//W3C//DTD SVG 1.1//EN" "http://www.w3.org/Graphics/SVG/1.1/DTD/svg11.dtd">
<svg version="1.1" id="Layer_1" xmlns="http://www.w3.org/2000/svg" xmlns:xlink="http://www.w3.org/1999/xlink" x="0px" y="0px"
	 width="789.002px" height="410.957px" viewBox="26.444 92.161 789.002 410.957"
	 enable-background="new 26.444 92.161 789.002 410.957" xml:space="preserve">
<g>
	<path d="M782.863,265.147c-0.428-0.008-0.856-0.008-1.283,0l0,0H676.885L559.106,103.74c-9.113-12.546-26.671-15.33-39.218-6.217
		c-10.509,7.633-14.411,21.478-9.434,33.476l55.336,134.149H451.819l-37.118-55.994c-7.687-11.561-23.291-14.701-34.852-7.014
		c-9.423,6.266-13.498,18.056-9.955,28.804l22.323,67.415l-22.323,67.415c-4.36,13.181,2.79,27.401,15.971,31.761
		c10.758,3.559,22.568-0.52,28.836-9.959l37.106-55.994h113.376L510.454,464.28c-5.942,14.323,0.853,30.751,15.176,36.693
		c11.997,4.977,25.843,1.075,33.476-9.434L675.83,331.582h105.75c18.346,0.354,33.505-14.23,33.86-32.576
		C815.794,280.661,801.209,265.502,782.863,265.147z"/>
	<rect x="26.444" y="282.585" width="311.68" height="30"/>
	<rect x="213.024" y="344.822" width="125.1" height="30"/>
	<rect x="119.814" y="220.348" width="218.31" height="30"/>
</g>
</svg>
