<?xml version="1.0" encoding="utf-8"?>
<!-- Generator: Adobe Illustrator 17.0.0, SVG Export Plug-In . SVG Version: 6.00 Build 0)  -->
<!DOCTYPE svg PUBLIC "-//W3C//DTD SVG 1.1//EN" "http://www.w3.org/Graphics/SVG/1.1/DTD/svg11.dtd">
<svg version="1.1" id="Capa_1" xmlns="http://www.w3.org/2000/svg" xmlns:xlink="http://www.w3.org/1999/xlink" x="0px" y="0px"
	 width="446.28px" height="446.28px" viewBox="197.805 74.5 446.28 446.28" enable-background="new 197.805 74.5 446.28 446.28"
	 xml:space="preserve">
<path d="M644.085,297.64c0-123.04-100.1-223.14-223.14-223.14s-223.14,100.1-223.14,223.14c0,31.762,6.572,62.465,19.535,91.257
	c12.138,26.963,29.24,50.914,50.859,71.234l-0.311,0.274l9.369,7.899c0.286,0.241,0.584,0.462,0.883,0.681
	c0.193,0.141,0.386,0.28,0.569,0.432c3.531,2.928,7.419,5.919,11.886,9.144c1.314,0.949,2.628,1.898,3.969,2.825
	c4.249,2.928,8.73,5.788,13.323,8.503c0.99,0.584,1.988,1.151,2.985,1.72c5.165,2.94,10.298,5.616,15.26,7.954
	c0.206,0.096,0.413,0.188,0.62,0.279c0.174,0.077,0.348,0.153,0.527,0.238c17.13,7.961,35.289,13.708,53.975,17.082l1.493,0.268
	c6.114,1.056,12.112,1.853,17.83,2.369c0.379,0.034,0.759,0.062,1.139,0.089c0.345,0.024,0.69,0.05,1.051,0.081
	c6.599,0.546,12.545,0.811,18.178,0.811c5.486,0,11.383-0.26,18.04-0.795c0.36-0.031,0.722-0.056,1.082-0.081
	c0.386-0.027,0.771-0.055,1.172-0.089c5.801-0.529,11.746-1.313,17.688-2.331l0.294-0.053c0.414-0.073,0.831-0.147,1.207-0.221
	c18.366-3.294,36.269-8.904,53.213-16.678l0.742-0.335c0.374-0.167,0.748-0.335,1.113-0.508c4.859-2.283,9.803-4.839,14.695-7.595
	c1.191-0.673,2.377-1.355,3.563-2.054c4.724-2.784,8.92-5.438,12.822-8.11c1.206-0.821,2.391-1.679,3.58-2.539l0.878-0.635
	c3.84-2.765,7.261-5.375,10.449-7.97c0.305-0.246,0.621-0.477,0.936-0.707c0.472-0.347,0.941-0.693,1.378-1.062l9.617-8.03
	l-0.326-0.277C618.244,418.559,644.085,359.29,644.085,297.64z M420.945,499.734c-4.529,0-9.441-0.202-15.021-0.619l-0.67-0.049
	c-0.634-0.045-1.267-0.09-1.909-0.149c-5.38-0.476-10.281-1.079-14.945-1.84l-0.7-0.125c-10.435-1.745-20.807-4.334-30.837-7.699
	l-0.927-0.313c-5.063-1.722-10.025-3.622-14.751-5.647l-0.108-0.05c-4.197-1.808-8.618-3.925-13.516-6.47l-0.697-0.357
	c-0.344-0.174-0.687-0.348-1.035-0.536c-3.741-1.999-7.641-4.271-11.912-6.938c-1.16-0.731-2.313-1.47-3.455-2.215
	c-3.115-2.038-5.942-3.981-8.579-5.899l60.815-33.173c11.716-6.392,18.994-18.65,18.994-31.993l-0.009-29.8l-2.439-2.949
	c-0.17-0.202-17.178-21.056-23.546-48.813l-0.958-4.164l-3.587-2.325c-3.148-2.036-5.028-5.426-5.028-9.069V270.1
	c0-3.01,1.294-5.835,3.645-7.957l3.472-3.135v-45.801l-0.078-1.222l-0.013-0.136c-0.022-0.184-2.117-18.53,10.599-33.025
	c11.112-12.665,30.355-19.087,57.196-19.087c26.727,0,45.928,6.374,57.067,18.942c12.607,14.239,10.806,32.451,10.722,33.236
	l-0.087,47.107l3.475,3.138c2.35,2.121,3.644,4.947,3.644,7.957v28.443c0,4.631-3.172,8.845-7.711,10.247l-5.23,1.61l-1.686,5.212
	c-4.653,14.458-11.276,27.813-19.686,39.694c-2.035,2.872-4.022,5.437-5.745,7.411l-2.61,2.978v30.619
	c0,13.894,7.718,26.377,20.141,32.58l65.54,32.767c-2.604,1.872-5.203,3.654-7.737,5.305l-0.363,0.237
	c-1.195,0.777-2.387,1.554-3.601,2.308c-3.872,2.396-7.717,4.608-11.421,6.574c-0.537,0.283-1.079,0.558-1.621,0.833l-0.968,0.493
	c-9.025,4.625-18.326,8.562-27.636,11.695l-1.015,0.344c-4.941,1.64-9.923,3.088-14.812,4.306l-0.326,0.077
	c-4.993,1.233-10.23,2.305-15.577,3.188l-0.415,0.077c-4.6,0.748-9.461,1.342-14.866,1.815c-0.649,0.059-1.298,0.104-1.95,0.148
	l-0.694,0.049C430.341,499.534,425.491,499.734,420.945,499.734z M474.144,373.481c1.444-1.814,2.951-3.825,4.49-5.99
	c8.729-12.326,15.781-26.036,20.973-40.761c10.641-5.479,17.205-16.179,17.205-28.175v-28.443c0-7.213-2.521-14.248-7.117-19.914
	v-36.415c0.477-4.946,1.73-28.914-15.727-48.819c-15.274-17.437-39.843-26.278-73.023-26.278c-33.178,0-57.746,8.838-73.022,26.269
	c-17.46,19.908-16.206,43.871-15.728,48.819v36.417c-4.596,5.674-7.117,12.708-7.117,19.913v28.442
	c0,9.264,4.01,17.976,11.031,24.033c6.403,24.45,18.9,43.132,24.536,50.695v22.386c0,5.632-3.074,10.811-8.02,13.515l-63.437,34.603
	c-1.523,0.828-3.052,1.761-4.633,2.827c-41.783-38.29-65.704-92.466-65.704-148.965c0-111.435,90.659-202.093,202.093-202.093
	s202.094,90.659,202.094,202.093c0,56.957-24.263,111.438-66.632,149.787c-2.031-1.329-3.95-2.442-5.827-3.384l-67.933-33.963
	c-5.245-2.622-8.503-7.893-8.503-13.754v-22.845H474.144z"/>
</svg>
